<?xml version="1.0" encoding="utf-8"?>
<svg viewBox="0.399 2.635 100.195 124.401" width="100.195" height="124.401" xmlns="http://www.w3.org/2000/svg" xmlns:bx="https://boxy-svg.com">
  <defs>
    <linearGradient gradientUnits="userSpaceOnUse" x1="204.604" y1="218.348" x2="204.604" y2="225.014" id="gradient-0" gradientTransform="matrix(1, 0, 0, 1, 41.965297, 18.514101)">
      <stop offset="0" style="stop-color: rgb(69.02% 10.196% 10.196%)"/>
      <stop offset="1" style="stop-color: rgb(47.617% 0% 0%)"/>
    </linearGradient>
    <linearGradient gradientUnits="userSpaceOnUse" x1="204.604" y1="218.348" x2="204.604" y2="225.014" id="gradient-1" gradientTransform="matrix(1, 0, 0, 1, -4.81343, 8.022452)">
      <stop offset="0" style="stop-color: rgb(69.02% 10.196% 10.196%)"/>
      <stop offset="1" style="stop-color: rgb(47.617% 0% 0%)"/>
    </linearGradient>
    <linearGradient gradientUnits="userSpaceOnUse" x1="204.604" y1="218.348" x2="204.604" y2="225.014" id="gradient-2" gradientTransform="matrix(1, 0, 0, 1, 36.046196, -2.852014)">
      <stop offset="0" style="stop-color: rgb(69.02% 10.196% 10.196%)"/>
      <stop offset="1" style="stop-color: rgb(47.617% 0% 0%)"/>
    </linearGradient>
    <linearGradient gradientUnits="userSpaceOnUse" x1="204.604" y1="218.348" x2="204.604" y2="225.014" id="gradient-3" gradientTransform="matrix(1, 0, 0, 1, 1.357937, -20.118983)">
      <stop offset="0" style="stop-color: rgb(69.02% 10.196% 10.196%)"/>
      <stop offset="1" style="stop-color: rgb(47.617% 0% 0%)"/>
    </linearGradient>
    <linearGradient gradientUnits="userSpaceOnUse" x1="204.604" y1="218.348" x2="204.604" y2="225.014" id="gradient-4" gradientTransform="matrix(1, 0, 0, 1, 25.549698, -43.076468)">
      <stop offset="0" style="stop-color: rgb(69.02% 10.196% 10.196%)"/>
      <stop offset="1" style="stop-color: rgb(47.617% 0% 0%)"/>
    </linearGradient>
    <linearGradient gradientUnits="userSpaceOnUse" x1="204.604" y1="218.348" x2="204.604" y2="225.014" id="gradient-5" gradientTransform="matrix(1, 0, 0, 1, 14.934944, -6.295119)">
      <stop offset="0" style="stop-color: rgb(69.02% 10.196% 10.196%)"/>
      <stop offset="1" style="stop-color: rgb(47.617% 0% 0%)"/>
    </linearGradient>
    <linearGradient gradientUnits="userSpaceOnUse" x1="253.358" y1="209.091" x2="253.358" y2="215.757" id="gradient-6" gradientTransform="matrix(1, 0, 0, 1, -47.29071, 28.037297)">
      <stop offset="0" style="stop-color: rgb(0% 21.569% 88.627%)"/>
      <stop offset="1" style="stop-color: rgb(0% 11.861% 64.277%)"/>
    </linearGradient>
    <linearGradient gradientUnits="userSpaceOnUse" x1="253.358" y1="209.091" x2="253.358" y2="215.757" id="gradient-7" gradientTransform="matrix(1, 0, 0, 1, -16.292206, -9.627989)">
      <stop offset="0" style="stop-color: rgb(0% 21.569% 88.627%)"/>
      <stop offset="1" style="stop-color: rgb(0% 11.861% 64.277%)"/>
    </linearGradient>
    <linearGradient gradientUnits="userSpaceOnUse" x1="253.358" y1="209.091" x2="253.358" y2="215.757" id="gradient-8" gradientTransform="matrix(1, 0, 0, 1, -37.02737, -21.970437)">
      <stop offset="0" style="stop-color: rgb(0% 21.569% 88.627%)"/>
      <stop offset="1" style="stop-color: rgb(0% 11.861% 64.277%)"/>
    </linearGradient>
  </defs>
  <g transform="matrix(0.7148779630661011, 0, 0, 0.7191610336303711, -108.24022674560547, -93.4969940185547)" style="">
    <title>Tree</title>
    <g style="" transform="matrix(1.030324, 0, 0, 1, -7.692257, 0)">
      <rect x="215.095" y="238.59" width="13.824" height="13.824" style="stroke: rgb(0, 0, 0); fill: rgb(133, 76, 10);"/>
      <path d="M 222.468 187.856 L 253.666 239.77 L 191.27 239.77 L 222.468 187.856 Z" style="stroke: rgb(0, 0, 0); fill: rgb(20, 128, 46);" bx:shape="triangle 191.27 187.856 62.396 51.914 0.5 0 1@fc359b9c"/>
      <path d="M 221.983 172.106 L 245.624 218.658 L 198.342 218.658 L 221.983 172.106 Z" style="stroke: rgb(0, 0, 0); fill: rgb(20, 128, 46);" bx:shape="triangle 198.342 172.106 47.282 46.552 0.5 0 1@c3972894"/>
      <path d="M 222.08 160.42 L 241.264 201.602 L 202.896 201.602 L 222.08 160.42 Z" style="stroke: rgb(0, 0, 0); fill: rgb(20, 128, 46);" bx:shape="triangle 202.896 160.42 38.368 41.182 0.5 0 1@8c72c351"/>
      <path style="fill: none; stroke-linecap: round; stroke: rgba(216, 213, 213, 0.87);" d="M 217.07 173.421 C 216.533 174.496 218.839 177.658 219.539 178.358 C 220.65 179.469 221.144 181.197 222.254 182.307 C 224.075 184.128 227.933 184.53 229.907 186.504 C 231.176 187.774 233.512 189.466 235.585 189.466"/>
      <path style="stroke: rgb(209, 209, 209); fill: none; stroke-linecap: round;" d="M 207.781 190.766 C 209.379 193.225 210.015 195.637 211.808 197.476 C 214.442 200.177 219.375 200.589 221.876 203.155 C 222.632 203.928 224.645 203.413 225.4 204.187 C 226.393 205.205 228.217 206.663 229.427 207.283 C 230.569 207.869 230.947 210.133 231.693 210.897 C 233.597 212.85 238.647 217.608 241.509 217.608"/>
      <path style="stroke: rgb(209, 209, 209); fill: none;" d="M 203.987 219.089 C 205.859 222.833 210.614 223.494 213.368 226.247 C 214.273 227.153 216.412 226.823 217.317 227.729 C 218.648 229.059 222.225 228.439 223.489 229.703 C 224.809 231.023 230.353 228.668 231.635 229.95 C 234.021 232.337 237.642 233.489 240.028 235.875 C 241.55 237.397 244.183 237.809 245.706 239.331 C 245.891 239.516 247.187 239.549 247.187 239.825"/>
      <path style="stroke: rgb(209, 209, 209); fill: none;" d="M 194.853 234.147 C 198.669 236.055 199.194 239.825 205.221 239.825"/>
      <ellipse style="fill: url('#gradient-0'); stroke: rgb(0, 0, 0); stroke-width: 0.1px;" cx="246.57" cy="240.195" rx="3.086" ry="3.333"/>
      <ellipse style="fill: url('#gradient-1'); stroke: rgb(0, 0, 0); stroke-width: 0.1px;" cx="199.791" cy="229.703" rx="3.086" ry="3.333"/>
      <ellipse style="fill: url('#gradient-2'); stroke: rgb(0, 0, 0); stroke-width: 0.1px;" cx="240.65" cy="218.829" rx="3.086" ry="3.333"/>
      <ellipse style="fill: url('#gradient-3'); stroke: rgb(0, 0, 0); stroke-width: 0.1px;" cx="205.962" cy="201.562" rx="3.086" ry="3.333"/>
      <ellipse style="fill: url('#gradient-4'); stroke: rgb(0, 0, 0); stroke-width: 0.1px;" cx="230.154" cy="178.605" rx="3.086" ry="3.333"/>
      <ellipse style="fill: url('#gradient-5'); stroke: rgb(0, 0, 0); stroke-width: 0.1px;" cx="219.539" cy="215.387" rx="3.086" ry="3.333"/>
      <ellipse style="fill: url('#gradient-6'); stroke: rgb(0, 0, 0); stroke-width: 0.1px;" cx="206.067" cy="240.462" rx="3.086" ry="3.333"/>
      <ellipse style="fill: url('#gradient-7'); stroke: rgb(0, 0, 0); stroke-width: 0.1px;" cx="237.065" cy="202.796" rx="3.086" ry="3.333"/>
      <ellipse style="fill: url('#gradient-8'); stroke: rgb(0, 0, 0); stroke-width: 0.1px;" cx="216.33" cy="190.454" rx="3.086" ry="3.333"/>
    </g>
    <path d="M 221.154 146.688 L 223.658 153.892 L 231.283 154.047 L 225.206 158.654 L 227.414 165.954 L 221.154 161.598 L 214.894 165.954 L 217.102 158.654 L 211.025 154.047 L 218.65 153.892 Z" style="stroke: rgb(0, 0, 0); fill: rgb(255, 241, 0); stroke-width: 0.3px;" bx:shape="star 221.154 157.338 10.65 10.65 0.4 5 1@1c040528"/>
  </g>
  <g transform="matrix(0.7148779630661011, 0, 0, 0.7191610336303711, -107.44784545898438, -94.24443817138673)" style="">
    <title>Text</title>
    <text style="fill: rgb(51, 51, 51); font-family: Arial, sans-serif; font-size: 22px; font-weight: 700; text-anchor: middle; white-space: pre;" x="219.039" y="280.789"><title>YEAR</title>YEAR_TEXT</text>
    <text style="fill: rgb(51, 51, 51); font-family: Arial, sans-serif; font-size: 12px; font-style: italic; text-anchor: middle; white-space: pre;" x="219.955" y="295.841"><title>SNOW_DEPTH</title>SNOW_DEPTH_TEXT</text>
  </g>
  <path d="M 34.933 63.697 C 35.513 63.686 36.526 63.962 36.847 64.339 C 37.114 64.653 37.092 65.232 36.988 65.622 C 36.883 66.017 36.49 66.423 36.208 66.691 C 35.964 66.924 35.673 66.837 35.429 67.19 C 35.003 67.808 34.902 69.538 34.295 70.755 C 33.602 72.144 32.076 73.605 31.319 75.032 C 30.626 76.338 30.506 78.293 29.832 78.952 C 29.354 79.418 28.589 79.454 28.131 79.38 C 27.748 79.318 27.399 79.099 27.209 78.738 C 26.965 78.271 26.946 77.375 27.068 76.6 C 27.211 75.689 27.632 74.66 28.202 73.606 C 28.877 72.355 30.345 70.989 31.036 69.614 C 31.684 68.322 31.807 66.544 32.311 65.622 C 32.672 64.962 33.061 64.591 33.516 64.268 C 33.941 63.965 34.415 63.707 34.933 63.697 Z M 50.522 25.204 C 50.963 25.196 51.66 25.381 52.152 25.846 C 52.81 26.467 53.107 28.167 53.852 29.053 C 54.58 29.917 56.141 30.467 56.545 31.121 C 56.82 31.565 56.791 32.013 56.687 32.404 C 56.582 32.799 56.293 33.224 55.907 33.474 C 55.461 33.76 54.592 33.988 54.065 33.9 C 53.593 33.824 53.085 33.337 52.861 33.117 C 52.724 32.982 52.799 32.921 52.648 32.76 C 52.341 32.434 51.311 31.909 50.735 31.263 C 50.092 30.542 49.319 29.383 49.034 28.555 C 48.804 27.888 48.756 27.207 48.892 26.7 C 49.012 26.26 49.378 25.884 49.672 25.632 C 49.93 25.41 50.176 25.211 50.522 25.204 Z M 42.303 37.607 C 42.744 37.599 43.645 37.878 43.932 38.249 C 44.197 38.591 44.236 39.188 44.074 39.675 C 43.874 40.275 42.903 40.645 42.515 41.528 C 41.994 42.714 42.231 45.354 41.665 46.518 C 41.236 47.399 40.649 47.866 39.893 48.3 C 39.056 48.781 37.47 49.241 36.775 49.155 C 36.32 49.099 36.034 48.821 35.854 48.514 C 35.665 48.19 35.608 47.622 35.713 47.231 C 35.818 46.836 36.108 46.502 36.492 46.161 C 36.978 45.73 38.064 45.7 38.547 44.949 C 39.191 43.95 38.805 41.295 39.397 40.102 C 39.878 39.134 40.915 38.44 41.452 38.035 C 41.796 37.777 41.957 37.614 42.303 37.607 Z" style="fill: rgb(235, 235, 235); stroke: rgb(147, 147, 147); stroke-width: 0.3px;" transform="matrix(1, 0, 0, 1, 7.105427357601002e-15, 0)">
    <title>TRACE</title>
  </path>
  <path d="M 48.018 24.524 C 48.441 24.516 49.873 24.738 50.271 25.214 C 50.416 25.387 50.509 25.615 50.556 25.872 C 50.592 25.837 50.629 25.805 50.664 25.775 C 50.921 25.552 51.168 25.353 51.514 25.346 C 51.956 25.339 52.705 25.55 53.144 25.988 C 53.673 26.517 53.799 27.847 54.277 28.555 C 54.714 29.199 55.507 29.53 55.837 30.123 C 56.146 30.679 56.357 31.469 56.262 31.976 C 56.179 32.415 55.858 32.798 55.482 33.045 C 55.061 33.324 54.24 33.547 53.781 33.474 C 53.399 33.41 53.211 33.143 52.861 32.832 C 52.377 32.401 51.645 31.705 51.16 30.979 C 50.64 30.2 50.065 29.021 49.885 28.269 C 49.877 28.235 49.869 28.203 49.862 28.171 C 49.352 28.773 48.671 29.427 48.312 30.34 C 47.576 32.205 47.849 35.806 46.94 37.832 C 46.144 39.606 44.653 41.018 43.51 42.07 C 42.977 42.56 42.391 42.81 41.841 43.093 C 41.09 44.229 40.407 45.313 40.39 45.806 C 40.371 46.31 40.964 46.261 41.098 46.66 C 41.271 47.18 41.303 48.117 41.098 48.8 C 40.88 49.522 40.319 50.429 39.751 50.866 C 39.236 51.263 38.394 51.499 37.909 51.436 C 37.832 51.426 37.758 51.409 37.686 51.382 C 37.542 51.412 37.393 51.434 37.246 51.444 C 37.094 51.73 36.896 51.972 36.651 52.125 C 36.174 52.425 35.176 52.513 34.691 52.322 C 34.269 52.155 33.969 51.712 33.81 51.237 C 33.619 50.674 33.65 49.723 33.81 49.069 C 33.961 48.449 34.436 47.669 34.691 47.393 C 34.792 47.285 34.838 47.233 34.932 47.21 C 34.956 46.717 35.034 46.211 35.182 45.717 C 35.667 44.096 37.137 41.868 38.415 40.493 C 38.934 39.934 39.619 39.467 40.293 39.05 C 40.313 38.788 40.369 38.512 40.472 38.225 C 40.923 36.983 43.107 35.159 43.805 33.691 C 43.896 33.498 43.973 33.289 44.04 33.07 C 44.326 31.072 44.629 28.767 45.176 27.58 C 45.827 26.169 47.166 25.113 47.626 24.721 C 47.821 24.555 47.801 24.528 48.018 24.524 Z M 36.455 54.885 C 36.879 54.877 38.301 55.067 38.709 55.574 C 39.118 56.084 39.13 56.94 38.905 57.94 C 38.626 59.175 37.483 61.832 36.503 63.226 C 36.865 63.323 37.232 63.497 37.414 63.768 C 37.604 64.053 37.68 64.483 37.689 64.98 C 38.04 65.09 38.355 65.238 38.513 65.432 C 38.65 65.599 38.738 65.803 38.788 66.036 C 39.169 65.998 39.627 65.993 39.983 66.122 C 40.625 66.354 41.486 66.884 41.844 67.601 C 42.255 68.423 42.159 69.93 42.04 70.953 C 41.932 71.887 41.746 72.577 41.257 73.516 C 40.625 74.724 39.229 76.942 38.219 77.556 C 37.499 77.995 36.571 78.034 36.063 77.754 C 35.574 77.484 35.608 76.393 35.182 75.979 C 34.952 75.758 34.576 75.71 34.237 75.628 C 34.129 75.758 34.018 75.876 33.908 75.979 C 33.755 76.121 33.584 76.227 33.402 76.309 C 32.71 77.423 31.965 78.551 31.36 78.937 C 30.947 79.199 30.488 79.337 30.073 79.35 C 29.938 79.547 29.809 79.705 29.689 79.808 C 29.59 79.893 29.49 79.963 29.391 80.022 C 29.211 80.324 29.022 80.57 28.812 80.711 C 28.2 81.12 27.337 81.099 26.853 80.908 C 26.431 80.742 26.128 80.285 25.97 79.824 C 25.79 79.297 25.697 78.609 25.97 77.853 C 26.361 76.773 27.827 74.874 28.812 74.008 C 29.018 73.826 29.244 73.692 29.475 73.583 C 29.726 73.105 29.932 72.671 30.044 72.322 C 30.369 71.313 29.899 70.907 30.327 69.898 C 30.671 69.089 31.604 67.705 32.563 66.42 C 32.62 66.34 32.678 66.262 32.737 66.187 C 33.272 65.479 33.805 64.814 34.237 64.31 C 34.115 64.273 34.004 64.219 33.908 64.15 C 33.356 63.755 32.895 62.464 33.026 61.292 C 33.208 59.652 35.516 55.746 36.063 55.082 C 36.245 54.861 36.239 54.888 36.455 54.885 Z M 59.384 40.493 C 59.965 40.395 60.915 40.514 61.638 41.182 C 62.75 42.213 63.921 46.393 64.773 47.393 C 65.218 47.915 65.661 47.599 65.949 48.083 C 66.399 48.841 66.707 51.397 66.537 52.224 C 66.437 52.713 66.22 52.921 65.851 53.111 C 65.371 53.357 64.481 53.814 63.695 53.308 C 63.127 52.941 62.351 51.868 61.572 50.569 C 61.333 50.362 61.113 50.134 60.939 49.94 C 60.57 49.529 60.408 48.871 60.159 48.585 C 59.988 48.388 59.773 48.432 59.663 48.229 C 59.515 47.955 59.417 47.336 59.521 46.946 C 59.535 46.895 59.553 46.844 59.575 46.793 C 59.196 45.985 58.888 45.26 58.698 44.732 C 58.194 43.324 58.061 42.088 58.307 41.38 C 58.48 40.882 58.913 40.573 59.384 40.493 Z M 53.505 85.64 C 55.863 85.439 58.163 85.334 60.168 85.64 C 61.977 85.916 63.733 87.181 65.067 87.216 C 66.093 87.244 67.044 86.129 67.615 86.429 C 68.197 86.733 68.608 88.403 68.497 89.089 C 68.406 89.65 68.021 90.064 67.419 90.371 C 66.551 90.815 64.75 91.112 63.304 90.963 C 61.698 90.798 59.685 89.452 58.209 89.189 C 57.02 88.976 56.444 89.063 55.072 89.189 C 53.044 89.373 50.051 90.315 46.842 90.568 C 42.904 90.88 34.892 91.674 32.928 90.568 C 31.895 89.987 31.903 88.511 32.045 87.908 C 32.154 87.449 32.366 87.227 33.124 87.019 C 34.924 86.524 41.687 87.307 45.274 87.019 C 48.36 86.772 50.925 85.859 53.505 85.64 Z" style="fill: rgb(235, 235, 235); stroke: rgb(147, 147, 147); stroke-width: 0.3px;" transform="matrix(1, 0, 0, 1, 7.105427357601002e-15, 0)">
    <title>LIGHT</title>
  </path>
  <path d="M 42.869 81.518 C 46.044 81.388 52.526 81.029 55.907 81.804 C 58.51 82.399 60.129 84.249 62.001 84.798 C 63.578 85.258 65.436 84.96 66.395 85.224 C 66.994 85.391 67.348 85.512 67.599 85.867 C 67.87 86.249 67.493 87.152 67.882 87.506 C 68.368 87.947 70.226 87.477 70.717 87.934 C 71.124 88.312 71.112 89.224 71.001 89.716 C 70.902 90.152 70.638 90.505 70.221 90.786 C 69.681 91.149 68.828 91.362 67.812 91.498 C 66.448 91.68 64.442 91.756 62.568 91.498 C 60.46 91.208 58.555 90.025 55.766 89.645 C 52.153 89.151 46.252 89.102 42.303 89.359 C 38.935 89.579 34.872 91.037 33.374 90.786 C 32.66 90.665 32.833 90.016 32.241 89.929 C 31.286 89.791 28.548 91.193 27.705 91.07 C 27.249 91.004 27.083 90.725 26.926 90.429 C 26.753 90.101 26.68 89.536 26.784 89.146 C 26.89 88.751 27.054 88.428 27.564 88.076 C 28.445 87.468 31.296 87.165 32.453 86.294 C 33.424 85.562 33.48 84.208 34.366 83.514 C 35.312 82.774 36.702 82.42 38.051 82.088 C 39.515 81.728 40.732 81.606 42.869 81.518 Z M 71.425 74.104 C 71.589 74.308 71.58 74.221 71.709 74.319 C 71.909 74.47 72.381 74.787 72.559 74.961 C 72.674 75.071 72.648 75.115 72.772 75.245 C 72.997 75.484 73.729 75.874 73.977 76.315 C 74.223 76.754 74.359 77.432 74.26 77.882 C 74.168 78.301 73.876 78.704 73.481 78.952 C 73.011 79.248 72.397 79.571 71.497 79.38 C 69.954 79.052 66.334 76.679 64.765 75.459 C 63.637 74.582 63.07 73.594 62.426 72.964 C 61.95 72.497 61.569 72.533 61.222 71.895 C 60.651 70.848 59.782 67.577 59.946 66.478 C 60.044 65.823 60.558 65.511 60.867 65.266 C 61.046 65.125 61.15 65.051 61.35 65.011 C 61.125 64.674 60.911 64.301 60.681 63.889 C 60.007 62.68 59.538 60.294 58.808 59.324 C 58.287 58.631 57.464 58.675 57.08 58.093 C 56.668 57.469 56.362 56.449 56.504 55.629 C 56.658 54.734 57.427 53.567 58.16 52.949 C 58.859 52.36 59.856 51.968 60.753 51.935 C 61.678 51.9 62.83 52.372 63.633 52.804 C 64.362 53.195 64.814 53.495 65.434 54.325 C 65.947 55.014 66.493 56.41 67.04 57.718 C 66.993 57.65 66.948 57.592 66.907 57.545 C 66.676 57.281 66.495 57.317 66.287 57.102 C 66.023 56.827 65.728 56.183 65.49 55.95 C 65.33 55.793 65.165 55.802 65.047 55.684 C 64.929 55.566 64.97 55.411 64.781 55.241 C 64.436 54.931 63.433 54.274 62.743 54.089 C 62.103 53.917 61.339 53.975 60.794 54.089 C 60.336 54.185 59.968 54.32 59.643 54.621 C 59.272 54.963 58.871 55.513 58.757 56.127 C 58.62 56.855 58.789 58.165 59.111 58.785 C 59.367 59.278 59.842 59.272 60.263 59.759 C 60.866 60.458 61.471 61.973 62.301 62.86 C 63.126 63.744 64.234 64.8 65.224 65.075 C 66.098 65.318 67.206 65.098 67.882 64.721 C 68.5 64.376 69.068 63.74 69.211 63.037 C 69.33 62.454 69.024 61.387 68.762 60.666 C 69.297 61.01 69.885 60.985 70.186 61.425 C 70.577 61.996 70.774 62.96 70.619 63.743 C 70.444 64.624 69.574 65.826 68.962 66.424 C 68.472 66.903 67.986 67.121 67.378 67.293 C 67.347 67.303 67.315 67.311 67.283 67.32 C 68.575 68.908 70.869 73.417 71.425 74.104 Z M 52.931 25.346 C 53.4 25.351 54.127 25.611 54.703 26.131 C 55.487 26.839 56.634 28.606 56.97 29.694 C 57.239 30.566 57 31.412 56.97 32.118 C 56.945 32.713 56.805 33.165 56.829 33.687 C 56.852 34.211 56.857 34.663 57.112 35.256 C 57.457 36.055 58.492 37.429 59.025 38.035 C 59.379 38.438 59.766 38.469 59.946 38.819 C 60.139 39.193 60.201 39.825 60.088 40.245 C 59.979 40.653 59.673 41.065 59.309 41.314 C 58.913 41.584 58.246 41.834 57.75 41.742 C 57.228 41.645 56.522 40.888 56.262 40.672 C 56.135 40.568 56.172 40.622 56.049 40.459 C 55.683 39.971 54.009 37.985 53.569 36.539 C 53.122 35.067 53.335 32.309 53.427 31.691 C 53.459 31.483 53.605 31.58 53.569 31.405 C 53.47 30.936 51.771 29.11 51.443 28.269 C 51.221 27.7 51.188 27.264 51.301 26.844 C 51.411 26.436 51.788 26.028 52.081 25.775 C 52.339 25.552 52.579 25.344 52.931 25.346 Z M 39.076 64.613 C 39.364 65.179 39.526 66.15 39.55 67.198 C 39.868 66.676 40.155 66.173 40.588 65.844 C 41.346 65.272 42.284 64.815 43.18 64.83 C 44.128 64.846 45.58 65.376 46.134 66.062 C 46.645 66.695 46.684 67.63 46.565 68.67 C 46.407 70.056 45.541 72.164 44.693 73.741 C 43.84 75.328 42.646 77.037 41.453 78.16 C 40.39 79.161 38.948 79.994 37.995 80.334 C 37.318 80.577 36.875 80.6 36.267 80.479 C 35.566 80.341 34.502 79.962 34.034 79.392 C 34.016 79.37 33.999 79.346 33.983 79.322 C 33.85 79.471 33.702 79.616 33.53 79.754 C 32.551 80.544 30.364 81.728 29.353 82.073 C 28.726 82.286 28.447 82.321 27.913 82.218 C 27.252 82.089 26.145 81.594 25.681 81.131 C 25.31 80.761 25.212 80.371 25.105 79.827 C 24.967 79.135 24.809 78.448 25.105 77.22 C 25.626 75.053 28.234 69.286 29.425 67.366 C 30.107 66.268 30.36 66.004 31.226 65.41 C 31.343 65.329 31.474 65.246 31.617 65.161 C 31.145 64.356 30.917 62.95 31.154 61.859 C 31.444 60.528 33.197 59.114 33.746 57.803 C 34.225 56.661 33.946 55.555 34.467 54.47 C 35.05 53.254 36.278 51.68 37.276 50.92 C 38.098 50.294 38.986 49.885 39.868 49.906 C 40.785 49.929 42.147 50.477 42.676 51.138 C 43.164 51.747 43.271 52.727 43.109 53.601 C 42.916 54.638 41.716 55.755 41.236 56.934 C 40.753 58.121 40.821 59.399 40.228 60.701 C 39.794 61.654 39.144 62.91 38.426 63.94 C 38.684 64.09 38.91 64.288 39.076 64.613 Z" style="fill: rgb(235, 235, 235); stroke: rgb(147, 147, 147); stroke-width: 0.3px;" transform="matrix(1, 0, 0, 1, 7.105427357601002e-15, 0)">
    <title>MODERATE</title>
  </path>
  <path style="fill: rgb(235, 235, 235); stroke: rgb(147, 147, 147); stroke-width: 0.3px;" d="M 48.822 70.256 C 50.16 70.048 51.03 69.985 52.223 70.256 C 53.586 70.567 56.007 71.806 56.545 72.251 C 56.759 72.428 56.543 72.47 56.757 72.679 C 57.348 73.251 60.742 74.837 61.789 75.887 C 62.074 76.174 62.288 76.515 62.458 76.846 C 62.471 76.86 62.485 76.873 62.497 76.885 C 62.681 77.064 62.638 77.065 62.781 77.312 C 62.905 77.528 63.145 77.908 63.403 78.348 C 63.551 78.444 63.747 78.523 63.915 78.738 C 64.199 79.104 64.489 80.198 64.765 80.52 C 64.933 80.717 65.03 80.649 65.261 80.805 C 65.658 81.074 66.741 81.853 67.032 82.159 C 67.181 82.317 67.104 82.379 67.245 82.516 C 67.487 82.75 68.185 82.945 68.591 83.371 C 69.076 83.882 69.498 85.199 69.867 85.51 C 70.073 85.684 70.282 85.541 70.434 85.653 C 70.593 85.77 70.563 85.992 70.788 86.223 C 71.096 86.54 71.652 87.028 72.345 87.465 C 72.446 87.477 72.541 87.49 72.63 87.506 C 73.467 87.654 73.66 88.072 74.331 88.218 C 75.128 88.394 76.203 88.093 77.165 88.362 C 78.232 88.659 79.167 89.691 80.425 90.072 C 81.838 90.501 84.585 90.055 85.314 90.642 C 85.785 91.023 85.701 91.817 85.598 92.282 C 85.503 92.706 85.247 93.101 84.818 93.352 C 84.257 93.678 83.274 93.768 82.267 93.78 C 81.85 93.784 81.345 93.769 80.812 93.73 C 80.586 93.873 80.327 93.974 79.858 94.064 C 78.548 94.314 74.28 94.522 73.055 94.207 C 72.737 94.125 72.512 94.021 72.345 93.891 C 71.772 93.886 71.159 93.871 70.519 93.855 C 69.93 93.908 69.319 93.901 68.795 93.806 C 68.47 93.796 68.142 93.788 67.812 93.78 C 63.747 93.677 58.111 93.191 52.648 93.066 C 46.585 92.927 36.591 92.618 32.949 93.066 C 31.144 93.288 31.122 93.813 29.689 94.064 C 27.65 94.421 22.791 94.903 21.47 94.634 C 20.876 94.514 20.728 94.3 20.549 93.993 C 20.46 93.841 20.4 93.635 20.373 93.419 C 19.645 93.382 19.02 93.303 18.636 93.209 C 18.095 93.076 17.894 92.874 17.714 92.568 C 17.525 92.243 17.468 91.674 17.573 91.284 C 17.678 90.89 17.813 90.482 18.352 90.215 C 18.852 89.969 19.877 89.985 20.981 89.973 C 21.091 89.581 21.262 89.33 21.753 88.932 C 22.661 88.195 24.894 87.567 26.855 86.223 C 27.274 85.935 27.733 85.582 28.217 85.185 C 28.372 84.711 28.531 84.244 28.768 83.87 C 29.312 83.016 29.817 82.332 30.682 81.661 C 31.268 81.206 31.995 80.731 32.801 80.321 C 34.248 78.527 35.982 76.521 37.484 75.245 C 39.186 73.801 40.733 72.935 42.586 72.109 C 44.502 71.256 47.087 70.524 48.822 70.256 Z M 43.79 52.22 C 44.35 53.998 44.463 57.717 44.357 60.347 C 44.255 62.892 43.631 66.001 43.223 67.761 C 42.953 68.93 42.815 69.576 42.373 70.327 C 41.937 71.07 41.326 71.767 40.602 72.251 C 39.849 72.754 38.568 73.314 37.909 73.249 C 37.426 73.202 37.037 72.915 36.847 72.466 C 36.585 71.846 37.356 70.126 36.988 69.543 C 36.675 69.045 35.45 69.156 35.146 68.902 C 34.964 68.749 35.073 68.359 34.933 68.402 C 34.634 68.492 33.765 70.986 33.091 71.538 C 32.602 71.939 31.963 72.033 31.531 71.967 C 31.159 71.909 30.79 71.632 30.611 71.325 C 30.421 71.001 30.344 70.855 30.469 70.042 C 30.794 67.921 33.364 59.374 35.129 55.187 C 35.061 55.175 34.995 55.161 34.933 55.143 C 34.466 55.016 34.071 54.707 33.87 54.359 C 33.672 54.015 33.595 53.727 33.728 53.076 C 33.799 52.729 33.971 52.167 34.205 51.51 C 34.076 51.417 33.963 51.281 33.87 51.08 C 33.467 50.206 33.167 47.691 33.587 45.806 C 34.086 43.561 35.972 40.626 37.271 38.534 C 38.421 36.683 39.918 34.628 40.885 33.758 C 41.468 33.234 41.9 33.548 42.373 32.974 C 43.143 32.042 43.735 28.947 44.499 27.699 C 45.06 26.784 45.382 26.337 46.271 25.775 C 47.473 25.013 50.283 24.158 51.514 23.921 C 52.281 23.773 52.74 23.769 53.214 23.921 C 53.644 24.059 53.778 24.099 54.277 24.705 C 55.494 26.18 59.34 32.84 60.513 35.256 C 61.21 36.69 61.475 37.452 61.647 38.392 C 61.791 39.178 61.769 40.035 61.647 40.53 C 61.563 40.869 61.224 40.863 61.222 41.243 C 61.218 41.945 62.445 43.878 62.639 44.807 C 62.775 45.457 62.36 45.509 62.639 46.376 C 63.307 48.449 68.226 55.187 69.441 58.494 C 70.314 60.867 70.626 63.354 70.434 64.481 C 70.329 65.095 70.051 65.276 69.654 65.55 C 69.171 65.885 67.67 65.895 67.599 66.192 C 67.536 66.458 68.639 66.985 68.875 67.19 C 68.995 67.295 68.974 67.271 69.087 67.404 C 69.344 67.705 70.19 68.956 70.504 69.257 C 70.662 69.408 70.695 69.286 70.858 69.472 C 71.264 69.932 72.587 72.512 72.914 72.964 C 73.029 73.125 73.028 73.005 73.126 73.178 C 73.413 73.684 74.456 76.131 74.685 77.312 C 74.865 78.241 74.87 79.126 74.685 79.736 C 74.539 80.216 74.374 80.554 73.906 80.805 C 73.22 81.174 71.653 81.582 70.504 81.233 C 69.132 80.817 67.421 79.246 66.324 77.882 C 65.223 76.515 64.204 74.104 63.915 73.035 C 63.752 72.435 63.877 72.083 63.915 71.752 C 63.942 71.511 64.116 71.536 64.056 71.182 C 63.893 70.23 61.721 66.798 61.222 64.767 C 60.781 62.973 61.471 61.434 60.939 59.635 C 60.313 57.523 57.775 54.809 57.254 52.933 C 56.87 51.552 57.01 50.307 57.254 49.37 C 57.45 48.613 58.047 47.881 58.317 47.588 C 58.458 47.432 58.675 47.535 58.671 47.373 C 58.662 47.038 57.362 45.894 56.912 45.112 C 56.644 45.147 56.384 45.154 56.143 45.124 C 55.115 44.998 54.078 44.222 53.191 43.313 C 52.144 42.241 51.281 40.425 50.454 38.822 C 49.936 37.816 49.379 36.637 48.914 35.522 C 47.861 34.897 46.264 33.816 45.531 32.894 C 43.965 36.493 42.313 41.51 40.904 44.739 C 41.37 44.766 42.086 44.932 42.373 45.377 C 42.795 46.03 42.596 47.723 42.515 48.8 C 42.48 49.26 42.436 49.739 42.361 50.196 C 42.722 50.76 43.473 51.213 43.79 52.22 Z M 49.955 10.948 C 50.395 10.908 51.387 10.898 51.727 11.232 C 52.056 11.556 52.214 12.16 52.01 12.872 C 51.664 14.08 49.667 17.065 48.396 17.933 C 47.442 18.585 46.122 18.636 45.42 18.503 C 45.318 18.483 45.221 18.456 45.128 18.42 C 44.288 18.616 43.348 18.732 42.869 18.646 C 42.335 18.551 41.972 18.244 41.806 17.862 C 41.622 17.439 41.746 16.602 41.948 16.151 C 42.13 15.745 42.571 15.427 42.869 15.225 C 43.111 15.061 43.203 14.983 43.578 14.939 C 44.149 14.874 45.769 14.795 46.63 15.033 C 46.675 15.006 46.721 14.975 46.766 14.939 C 47.55 14.318 48.654 11.769 49.247 11.232 C 49.54 10.967 49.643 10.975 49.955 10.948 Z" transform="matrix(1, 0, 0, 1, 7.105427357601002e-15, 0)">
    <title>HEAVY</title>
  </path>
  <path d="M 49.737 51.463 C 51.848 51.623 53.413 51.585 55.486 52.367 C 56.795 52.86 58.685 53.937 60.358 54.993 C 60.505 54.969 60.648 54.955 60.789 54.951 C 61.954 54.92 63.465 55.776 64.203 56.391 C 64.771 56.865 64.665 57.436 65.194 58.054 C 65.939 58.924 67.961 59.761 68.609 61.046 C 68.888 61.599 69.073 62.27 69.167 62.976 C 70.047 64.274 71.972 67.726 72.464 68.452 C 72.672 68.758 72.628 68.581 72.824 68.904 C 73.37 69.81 75.69 74.777 76.237 75.683 C 76.432 76.005 76.39 75.785 76.597 76.134 C 77.252 77.24 79.335 83.654 81.178 85.442 C 81.198 85.462 81.218 85.48 81.238 85.499 C 82.176 85.593 82.881 85.741 83.244 85.985 C 83.545 86.186 83.595 86.466 83.561 86.75 C 84.208 86.917 84.939 87.034 85.849 87.249 C 88.393 87.853 94.556 87.915 97.622 88.41 C 98.821 88.452 99.697 88.561 100.132 88.876 C 100.587 89.206 100.426 89.797 100.312 90.231 C 100.188 90.704 100.041 91.28 99.323 91.587 C 98.766 91.825 97.924 91.895 96.858 91.896 C 95.839 91.959 94.559 91.89 93.234 91.795 C 92.544 91.777 91.816 91.764 91.059 91.768 C 84.942 91.804 75.541 91.584 64.469 91.587 C 52.383 91.59 25.757 92.955 13.239 92.586 C 12.136 92.646 10.814 92.599 9.778 92.505 C 7.981 92.341 5.115 91.932 4.38 91.286 C 3.964 90.92 4.063 90.347 4.16 89.956 C 4.255 89.575 4.558 89.273 4.932 88.959 C 5.259 88.683 5.78 88.273 6.279 88.036 C 6.443 87.809 6.674 87.601 6.977 87.431 C 7.946 86.882 10.116 87.328 12.007 86.526 C 13.013 86.1 14.191 85.579 15.407 84.908 C 15.538 84.777 15.714 84.651 15.96 84.539 C 16.038 84.502 16.127 84.469 16.227 84.435 C 17.804 83.483 19.395 82.261 20.721 80.652 C 24.062 76.598 26.698 66.829 29.165 62.578 C 29.4 62.173 29.648 61.774 29.9 61.385 C 29.93 61.298 29.962 61.21 29.996 61.119 C 29.957 61.066 29.919 61.01 29.884 60.952 C 29.492 60.294 29.267 59.097 29.345 58.059 C 29.434 56.888 29.85 55.733 30.603 54.265 C 31.261 52.982 32.732 50.776 33.943 49.124 C 34.643 46.704 36.283 42.652 37.609 39.985 C 39.112 36.967 41.127 34 42.82 31.672 C 43.369 30.917 44.024 30.094 44.659 29.333 C 44.404 28.938 44.226 28.41 44.257 28.057 C 44.301 27.56 44.731 27.134 45.245 26.702 C 45.933 26.124 47.354 25.247 48.3 25.075 C 49.1 24.931 50.169 25.076 50.545 25.437 C 50.852 25.73 50.85 26.344 50.725 26.792 C 50.619 27.171 50.336 27.574 49.973 27.944 C 50.122 28.58 50.141 29.406 50.006 30.406 C 49.592 33.486 46.681 41.06 44.796 44.866 C 44.198 46.074 43.539 47.229 42.875 48.27 C 43.17 48.62 43.27 49.129 43 49.926 C 42.882 50.274 42.618 50.791 42.26 51.403 C 44.401 51.143 47.504 51.294 49.737 51.463 Z M 49.198 10.978 C 49.585 10.942 50.886 10.917 51.264 11.339 C 51.653 11.774 51.65 12.7 51.444 13.598 C 51.155 14.852 50.075 17.478 49.018 18.207 C 48.162 18.797 46.603 18.741 45.964 18.388 C 45.437 18.097 45.11 17.193 45.156 16.671 C 45.199 16.174 45.751 15.563 46.144 15.315 C 46.485 15.1 46.954 15.471 47.312 15.135 C 47.908 14.575 48.475 11.641 48.839 11.159 C 48.98 10.97 48.998 10.996 49.198 10.978 Z" style="fill: rgb(237, 237, 237); stroke-width: 0.3px; stroke: rgb(147, 147, 147);" transform="matrix(1, 0, 0, 1, 7.105427357601002e-15, 0)">
    <title>SEVERE</title>
  </path>
</svg>