<?xml version="1.0" encoding="utf-8"?>
<svg viewBox="0.399 2.635 100.195 124.401" width="100.195" height="124.401" xmlns="http://www.w3.org/2000/svg" xmlns:bx="https://boxy-svg.com">
  <defs>
    <linearGradient gradientUnits="userSpaceOnUse" x1="204.604" y1="218.348" x2="204.604" y2="225.014" id="gradient-0" gradientTransform="matrix(1, 0, 0, 1, 41.965297, 18.514101)">
      <stop offset="0" style="stop-color: rgb(69.02% 10.196% 10.196%)"/>
      <stop offset="1" style="stop-color: rgb(47.617% 0% 0%)"/>
    </linearGradient>
    <linearGradient gradientUnits="userSpaceOnUse" x1="204.604" y1="218.348" x2="204.604" y2="225.014" id="gradient-1" gradientTransform="matrix(1, 0, 0, 1, -4.81343, 8.022452)">
      <stop offset="0" style="stop-color: rgb(69.02% 10.196% 10.196%)"/>
      <stop offset="1" style="stop-color: rgb(47.617% 0% 0%)"/>
    </linearGradient>
    <linearGradient gradientUnits="userSpaceOnUse" x1="204.604" y1="218.348" x2="204.604" y2="225.014" id="gradient-2" gradientTransform="matrix(1, 0, 0, 1, 36.046196, -2.852014)">
      <stop offset="0" style="stop-color: rgb(69.02% 10.196% 10.196%)"/>
      <stop offset="1" style="stop-color: rgb(47.617% 0% 0%)"/>
    </linearGradient>
    <linearGradient gradientUnits="userSpaceOnUse" x1="204.604" y1="218.348" x2="204.604" y2="225.014" id="gradient-3" gradientTransform="matrix(1, 0, 0, 1, 1.357937, -20.118983)">
      <stop offset="0" style="stop-color: rgb(69.02% 10.196% 10.196%)"/>
      <stop offset="1" style="stop-color: rgb(47.617% 0% 0%)"/>
    </linearGradient>
    <linearGradient gradientUnits="userSpaceOnUse" x1="204.604" y1="218.348" x2="204.604" y2="225.014" id="gradient-4" gradientTransform="matrix(1, 0, 0, 1, 25.549698, -43.076468)">
      <stop offset="0" style="stop-color: rgb(69.02% 10.196% 10.196%)"/>
      <stop offset="1" style="stop-color: rgb(47.617% 0% 0%)"/>
    </linearGradient>
    <linearGradient gradientUnits="userSpaceOnUse" x1="204.604" y1="218.348" x2="204.604" y2="225.014" id="gradient-5" gradientTransform="matrix(1, 0, 0, 1, 14.934944, -6.295119)">
      <stop offset="0" style="stop-color: rgb(69.02% 10.196% 10.196%)"/>
      <stop offset="1" style="stop-color: rgb(47.617% 0% 0%)"/>
    </linearGradient>
    <linearGradient gradientUnits="userSpaceOnUse" x1="253.358" y1="209.091" x2="253.358" y2="215.757" id="gradient-6" gradientTransform="matrix(1, 0, 0, 1, -47.29071, 28.037297)">
      <stop offset="0" style="stop-color: rgb(0% 21.569% 88.627%)"/>
      <stop offset="1" style="stop-color: rgb(0% 11.861% 64.277%)"/>
    </linearGradient>
    <linearGradient gradientUnits="userSpaceOnUse" x1="253.358" y1="209.091" x2="253.358" y2="215.757" id="gradient-7" gradientTransform="matrix(1, 0, 0, 1, -16.292206, -9.627989)">
      <stop offset="0" style="stop-color: rgb(0% 21.569% 88.627%)"/>
      <stop offset="1" style="stop-color: rgb(0% 11.861% 64.277%)"/>
    </linearGradient>
    <linearGradient gradientUnits="userSpaceOnUse" x1="253.358" y1="209.091" x2="253.358" y2="215.757" id="gradient-8" gradientTransform="matrix(1, 0, 0, 1, -37.02737, -21.970437)">
      <stop offset="0" style="stop-color: rgb(0% 21.569% 88.627%)"/>
      <stop offset="1" style="stop-color: rgb(0% 11.861% 64.277%)"/>
    </linearGradient>
  </defs>
  <g transform="matrix(0.7148779630661011, 0, 0, 0.7191610336303711, -108.24022674560547, -93.4969940185547)" style="">
    <title>Tree</title>
    <g style="" transform="matrix(1.030324, 0, 0, 1, -7.692257, 0)">
      <rect x="215.095" y="238.59" width="13.824" height="13.824" style="stroke: rgb(0, 0, 0); fill: rgb(133, 76, 10);"/>
      <path d="M 222.468 187.856 L 253.666 239.77 L 191.27 239.77 L 222.468 187.856 Z" style="stroke: rgb(0, 0, 0); fill: rgb(20, 128, 46);" bx:shape="triangle 191.27 187.856 62.396 51.914 0.5 0 1@fc359b9c"/>
      <path d="M 221.983 172.106 L 245.624 218.658 L 198.342 218.658 L 221.983 172.106 Z" style="stroke: rgb(0, 0, 0); fill: rgb(20, 128, 46);" bx:shape="triangle 198.342 172.106 47.282 46.552 0.5 0 1@c3972894"/>
      <path d="M 222.08 160.42 L 241.264 201.602 L 202.896 201.602 L 222.08 160.42 Z" style="stroke: rgb(0, 0, 0); fill: rgb(20, 128, 46);" bx:shape="triangle 202.896 160.42 38.368 41.182 0.5 0 1@8c72c351"/>
      <path style="fill: none; stroke-linecap: round; stroke: rgba(216, 213, 213, 0.87);" d="M 217.07 173.421 C 216.533 174.496 218.839 177.658 219.539 178.358 C 220.65 179.469 221.144 181.197 222.254 182.307 C 224.075 184.128 227.933 184.53 229.907 186.504 C 231.176 187.774 233.512 189.466 235.585 189.466"/>
      <path style="stroke: rgb(209, 209, 209); fill: none; stroke-linecap: round;" d="M 207.781 190.766 C 209.379 193.225 210.015 195.637 211.808 197.476 C 214.442 200.177 219.375 200.589 221.876 203.155 C 222.632 203.928 224.645 203.413 225.4 204.187 C 226.393 205.205 228.217 206.663 229.427 207.283 C 230.569 207.869 230.947 210.133 231.693 210.897 C 233.597 212.85 238.647 217.608 241.509 217.608"/>
      <path style="stroke: rgb(209, 209, 209); fill: none;" d="M 203.987 219.089 C 205.859 222.833 210.614 223.494 213.368 226.247 C 214.273 227.153 216.412 226.823 217.317 227.729 C 218.648 229.059 222.225 228.439 223.489 229.703 C 224.809 231.023 230.353 228.668 231.635 229.95 C 234.021 232.337 237.642 233.489 240.028 235.875 C 241.55 237.397 244.183 237.809 245.706 239.331 C 245.891 239.516 247.187 239.549 247.187 239.825"/>
      <path style="stroke: rgb(209, 209, 209); fill: none;" d="M 194.853 234.147 C 198.669 236.055 199.194 239.825 205.221 239.825"/>
      <ellipse style="fill: url('#gradient-0'); stroke: rgb(0, 0, 0); stroke-width: 0.1px;" cx="246.57" cy="240.195" rx="3.086" ry="3.333"/>
      <ellipse style="fill: url('#gradient-1'); stroke: rgb(0, 0, 0); stroke-width: 0.1px;" cx="199.791" cy="229.703" rx="3.086" ry="3.333"/>
      <ellipse style="fill: url('#gradient-2'); stroke: rgb(0, 0, 0); stroke-width: 0.1px;" cx="240.65" cy="218.829" rx="3.086" ry="3.333"/>
      <ellipse style="fill: url('#gradient-3'); stroke: rgb(0, 0, 0); stroke-width: 0.1px;" cx="205.962" cy="201.562" rx="3.086" ry="3.333"/>
      <ellipse style="fill: url('#gradient-4'); stroke: rgb(0, 0, 0); stroke-width: 0.1px;" cx="230.154" cy="178.605" rx="3.086" ry="3.333"/>
      <ellipse style="fill: url('#gradient-5'); stroke: rgb(0, 0, 0); stroke-width: 0.1px;" cx="219.539" cy="215.387" rx="3.086" ry="3.333"/>
      <ellipse style="fill: url('#gradient-6'); stroke: rgb(0, 0, 0); stroke-width: 0.1px;" cx="206.067" cy="240.462" rx="3.086" ry="3.333"/>
      <ellipse style="fill: url('#gradient-7'); stroke: rgb(0, 0, 0); stroke-width: 0.1px;" cx="237.065" cy="202.796" rx="3.086" ry="3.333"/>
      <ellipse style="fill: url('#gradient-8'); stroke: rgb(0, 0, 0); stroke-width: 0.1px;" cx="216.33" cy="190.454" rx="3.086" ry="3.333"/>
    </g>
    <path d="M 221.154 146.688 L 223.658 153.892 L 231.283 154.047 L 225.206 158.654 L 227.414 165.954 L 221.154 161.598 L 214.894 165.954 L 217.102 158.654 L 211.025 154.047 L 218.65 153.892 Z" style="stroke: rgb(0, 0, 0); fill: rgb(255, 241, 0); stroke-width: 0.3px;" bx:shape="star 221.154 157.338 10.65 10.65 0.4 5 1@1c040528"/>
  </g>
  <g transform="matrix(0.7148779630661011, 0, 0, 0.7191610336303711, -107.44784545898438, -94.24443817138673)" style="">
    <title>Text</title>
    <text style="fill: rgb(51, 51, 51); font-family: Arial, sans-serif; font-size: 22px; font-weight: 700; text-anchor: middle; white-space: pre;" x="219.039" y="280.789"><title>YEAR</title>YEAR_TEXT</text>
    <text style="fill: rgb(51, 51, 51); font-family: Arial, sans-serif; font-size: 12px; font-style: italic; text-anchor: middle; white-space: pre;" x="219.955" y="295.841"><title>SNOW_DEPTH</title>SNOW_DEPTH_TEXT</text>
  </g>
  <path d="M 48.018 24.524 C 48.441 24.516 49.873 24.738 50.271 25.214 C 50.416 25.387 50.509 25.615 50.556 25.872 C 50.592 25.837 50.629 25.805 50.664 25.775 C 50.921 25.552 51.168 25.353 51.514 25.346 C 51.956 25.339 52.705 25.55 53.144 25.988 C 53.673 26.517 53.799 27.847 54.277 28.555 C 54.714 29.199 55.507 29.53 55.837 30.123 C 56.146 30.679 56.357 31.469 56.262 31.976 C 56.179 32.415 55.858 32.798 55.482 33.045 C 55.061 33.324 54.24 33.547 53.781 33.474 C 53.399 33.41 53.211 33.143 52.861 32.832 C 52.377 32.401 51.645 31.705 51.16 30.979 C 50.64 30.2 50.065 29.021 49.885 28.269 C 49.877 28.235 49.869 28.203 49.862 28.171 C 49.352 28.773 48.671 29.427 48.312 30.34 C 47.576 32.205 47.849 35.806 46.94 37.832 C 46.144 39.606 44.653 41.018 43.51 42.07 C 42.977 42.56 42.391 42.81 41.841 43.093 C 41.09 44.229 40.407 45.313 40.39 45.806 C 40.371 46.31 40.964 46.261 41.098 46.66 C 41.271 47.18 41.303 48.117 41.098 48.8 C 40.88 49.522 40.319 50.429 39.751 50.866 C 39.236 51.263 38.394 51.499 37.909 51.436 C 37.832 51.426 37.758 51.409 37.686 51.382 C 37.542 51.412 37.393 51.434 37.246 51.444 C 37.094 51.73 36.896 51.972 36.651 52.125 C 36.174 52.425 35.176 52.513 34.691 52.322 C 34.269 52.155 33.969 51.712 33.81 51.237 C 33.619 50.674 33.65 49.723 33.81 49.069 C 33.961 48.449 34.436 47.669 34.691 47.393 C 34.792 47.285 34.838 47.233 34.932 47.21 C 34.956 46.717 35.034 46.211 35.182 45.717 C 35.667 44.096 37.137 41.868 38.415 40.493 C 38.934 39.934 39.619 39.467 40.293 39.05 C 40.313 38.788 40.369 38.512 40.472 38.225 C 40.923 36.983 43.107 35.159 43.805 33.691 C 43.896 33.498 43.973 33.289 44.04 33.07 C 44.326 31.072 44.629 28.767 45.176 27.58 C 45.827 26.169 47.166 25.113 47.626 24.721 C 47.821 24.555 47.801 24.528 48.018 24.524 Z M 36.455 54.885 C 36.879 54.877 38.301 55.067 38.709 55.574 C 39.118 56.084 39.13 56.94 38.905 57.94 C 38.626 59.175 37.483 61.832 36.503 63.226 C 36.865 63.323 37.232 63.497 37.414 63.768 C 37.604 64.053 37.68 64.483 37.689 64.98 C 38.04 65.09 38.355 65.238 38.513 65.432 C 38.65 65.599 38.738 65.803 38.788 66.036 C 39.169 65.998 39.627 65.993 39.983 66.122 C 40.625 66.354 41.486 66.884 41.844 67.601 C 42.255 68.423 42.159 69.93 42.04 70.953 C 41.932 71.887 41.746 72.577 41.257 73.516 C 40.625 74.724 39.229 76.942 38.219 77.556 C 37.499 77.995 36.571 78.034 36.063 77.754 C 35.574 77.484 35.608 76.393 35.182 75.979 C 34.952 75.758 34.576 75.71 34.237 75.628 C 34.129 75.758 34.018 75.876 33.908 75.979 C 33.755 76.121 33.584 76.227 33.402 76.309 C 32.71 77.423 31.965 78.551 31.36 78.937 C 30.947 79.199 30.488 79.337 30.073 79.35 C 29.938 79.547 29.809 79.705 29.689 79.808 C 29.59 79.893 29.49 79.963 29.391 80.022 C 29.211 80.324 29.022 80.57 28.812 80.711 C 28.2 81.12 27.337 81.099 26.853 80.908 C 26.431 80.742 26.128 80.285 25.97 79.824 C 25.79 79.297 25.697 78.609 25.97 77.853 C 26.361 76.773 27.827 74.874 28.812 74.008 C 29.018 73.826 29.244 73.692 29.475 73.583 C 29.726 73.105 29.932 72.671 30.044 72.322 C 30.369 71.313 29.899 70.907 30.327 69.898 C 30.671 69.089 31.604 67.705 32.563 66.42 C 32.62 66.34 32.678 66.262 32.737 66.187 C 33.272 65.479 33.805 64.814 34.237 64.31 C 34.115 64.273 34.004 64.219 33.908 64.15 C 33.356 63.755 32.895 62.464 33.026 61.292 C 33.208 59.652 35.516 55.746 36.063 55.082 C 36.245 54.861 36.239 54.888 36.455 54.885 Z M 59.384 40.493 C 59.965 40.395 60.915 40.514 61.638 41.182 C 62.75 42.213 63.921 46.393 64.773 47.393 C 65.218 47.915 65.661 47.599 65.949 48.083 C 66.399 48.841 66.707 51.397 66.537 52.224 C 66.437 52.713 66.22 52.921 65.851 53.111 C 65.371 53.357 64.481 53.814 63.695 53.308 C 63.127 52.941 62.351 51.868 61.572 50.569 C 61.333 50.362 61.113 50.134 60.939 49.94 C 60.57 49.529 60.408 48.871 60.159 48.585 C 59.988 48.388 59.773 48.432 59.663 48.229 C 59.515 47.955 59.417 47.336 59.521 46.946 C 59.535 46.895 59.553 46.844 59.575 46.793 C 59.196 45.985 58.888 45.26 58.698 44.732 C 58.194 43.324 58.061 42.088 58.307 41.38 C 58.48 40.882 58.913 40.573 59.384 40.493 Z M 53.505 85.64 C 55.863 85.439 58.163 85.334 60.168 85.64 C 61.977 85.916 63.733 87.181 65.067 87.216 C 66.093 87.244 67.044 86.129 67.615 86.429 C 68.197 86.733 68.608 88.403 68.497 89.089 C 68.406 89.65 68.021 90.064 67.419 90.371 C 66.551 90.815 64.75 91.112 63.304 90.963 C 61.698 90.798 59.685 89.452 58.209 89.189 C 57.02 88.976 56.444 89.063 55.072 89.189 C 53.044 89.373 50.051 90.315 46.842 90.568 C 42.904 90.88 34.892 91.674 32.928 90.568 C 31.895 89.987 31.903 88.511 32.045 87.908 C 32.154 87.449 32.366 87.227 33.124 87.019 C 34.924 86.524 41.687 87.307 45.274 87.019 C 48.36 86.772 50.925 85.859 53.505 85.64 Z" style="fill: rgb(235, 235, 235); stroke: rgb(147, 147, 147); stroke-width: 0.3px;" transform="matrix(1, 0, 0, 1, 7.105427357601002e-15, 0)">
    <title>LOW</title>
  </path>
</svg>