<?xml version="1.0" encoding="utf-8"?>
<svg viewBox="0.399 2.635 100.195 124.401" width="100.195" height="124.401" xmlns="http://www.w3.org/2000/svg" xmlns:bx="https://boxy-svg.com">
  <defs>
    <linearGradient gradientUnits="userSpaceOnUse" x1="204.604" y1="218.348" x2="204.604" y2="225.014" id="gradient-0" gradientTransform="matrix(1, 0, 0, 1, 41.965297, 18.514101)">
      <stop offset="0" style="stop-color: rgb(69.02% 10.196% 10.196%)"/>
      <stop offset="1" style="stop-color: rgb(47.617% 0% 0%)"/>
    </linearGradient>
    <linearGradient gradientUnits="userSpaceOnUse" x1="204.604" y1="218.348" x2="204.604" y2="225.014" id="gradient-1" gradientTransform="matrix(1, 0, 0, 1, -4.81343, 8.022452)">
      <stop offset="0" style="stop-color: rgb(69.02% 10.196% 10.196%)"/>
      <stop offset="1" style="stop-color: rgb(47.617% 0% 0%)"/>
    </linearGradient>
    <linearGradient gradientUnits="userSpaceOnUse" x1="204.604" y1="218.348" x2="204.604" y2="225.014" id="gradient-2" gradientTransform="matrix(1, 0, 0, 1, 36.046196, -2.852014)">
      <stop offset="0" style="stop-color: rgb(69.02% 10.196% 10.196%)"/>
      <stop offset="1" style="stop-color: rgb(47.617% 0% 0%)"/>
    </linearGradient>
    <linearGradient gradientUnits="userSpaceOnUse" x1="204.604" y1="218.348" x2="204.604" y2="225.014" id="gradient-3" gradientTransform="matrix(1, 0, 0, 1, 1.357937, -20.118983)">
      <stop offset="0" style="stop-color: rgb(69.02% 10.196% 10.196%)"/>
      <stop offset="1" style="stop-color: rgb(47.617% 0% 0%)"/>
    </linearGradient>
    <linearGradient gradientUnits="userSpaceOnUse" x1="204.604" y1="218.348" x2="204.604" y2="225.014" id="gradient-4" gradientTransform="matrix(1, 0, 0, 1, 25.549698, -43.076468)">
      <stop offset="0" style="stop-color: rgb(69.02% 10.196% 10.196%)"/>
      <stop offset="1" style="stop-color: rgb(47.617% 0% 0%)"/>
    </linearGradient>
    <linearGradient gradientUnits="userSpaceOnUse" x1="204.604" y1="218.348" x2="204.604" y2="225.014" id="gradient-5" gradientTransform="matrix(1, 0, 0, 1, 14.934944, -6.295119)">
      <stop offset="0" style="stop-color: rgb(69.02% 10.196% 10.196%)"/>
      <stop offset="1" style="stop-color: rgb(47.617% 0% 0%)"/>
    </linearGradient>
    <linearGradient gradientUnits="userSpaceOnUse" x1="253.358" y1="209.091" x2="253.358" y2="215.757" id="gradient-6" gradientTransform="matrix(1, 0, 0, 1, -47.29071, 28.037297)">
      <stop offset="0" style="stop-color: rgb(0% 21.569% 88.627%)"/>
      <stop offset="1" style="stop-color: rgb(0% 11.861% 64.277%)"/>
    </linearGradient>
    <linearGradient gradientUnits="userSpaceOnUse" x1="253.358" y1="209.091" x2="253.358" y2="215.757" id="gradient-7" gradientTransform="matrix(1, 0, 0, 1, -16.292206, -9.627989)">
      <stop offset="0" style="stop-color: rgb(0% 21.569% 88.627%)"/>
      <stop offset="1" style="stop-color: rgb(0% 11.861% 64.277%)"/>
    </linearGradient>
    <linearGradient gradientUnits="userSpaceOnUse" x1="253.358" y1="209.091" x2="253.358" y2="215.757" id="gradient-8" gradientTransform="matrix(1, 0, 0, 1, -37.02737, -21.970437)">
      <stop offset="0" style="stop-color: rgb(0% 21.569% 88.627%)"/>
      <stop offset="1" style="stop-color: rgb(0% 11.861% 64.277%)"/>
    </linearGradient>
  </defs>
  <g transform="matrix(0.7148779630661011, 0, 0, 0.7191610336303711, -108.24022674560547, -93.4969940185547)" style="">
    <title>Tree</title>
    <g style="" transform="matrix(1.030324, 0, 0, 1, -7.692257, 0)">
      <rect x="215.095" y="238.59" width="13.824" height="13.824" style="stroke: rgb(0, 0, 0); fill: rgb(133, 76, 10);"/>
      <path d="M 222.468 187.856 L 253.666 239.77 L 191.27 239.77 L 222.468 187.856 Z" style="stroke: rgb(0, 0, 0); fill: rgb(20, 128, 46);" bx:shape="triangle 191.27 187.856 62.396 51.914 0.5 0 1@fc359b9c"/>
      <path d="M 221.983 172.106 L 245.624 218.658 L 198.342 218.658 L 221.983 172.106 Z" style="stroke: rgb(0, 0, 0); fill: rgb(20, 128, 46);" bx:shape="triangle 198.342 172.106 47.282 46.552 0.5 0 1@c3972894"/>
      <path d="M 222.08 160.42 L 241.264 201.602 L 202.896 201.602 L 222.08 160.42 Z" style="stroke: rgb(0, 0, 0); fill: rgb(20, 128, 46);" bx:shape="triangle 202.896 160.42 38.368 41.182 0.5 0 1@8c72c351"/>
      <path style="fill: none; stroke-linecap: round; stroke: rgba(216, 213, 213, 0.87);" d="M 217.07 173.421 C 216.533 174.496 218.839 177.658 219.539 178.358 C 220.65 179.469 221.144 181.197 222.254 182.307 C 224.075 184.128 227.933 184.53 229.907 186.504 C 231.176 187.774 233.512 189.466 235.585 189.466"/>
      <path style="stroke: rgb(209, 209, 209); fill: none; stroke-linecap: round;" d="M 207.781 190.766 C 209.379 193.225 210.015 195.637 211.808 197.476 C 214.442 200.177 219.375 200.589 221.876 203.155 C 222.632 203.928 224.645 203.413 225.4 204.187 C 226.393 205.205 228.217 206.663 229.427 207.283 C 230.569 207.869 230.947 210.133 231.693 210.897 C 233.597 212.85 238.647 217.608 241.509 217.608"/>
      <path style="stroke: rgb(209, 209, 209); fill: none;" d="M 203.987 219.089 C 205.859 222.833 210.614 223.494 213.368 226.247 C 214.273 227.153 216.412 226.823 217.317 227.729 C 218.648 229.059 222.225 228.439 223.489 229.703 C 224.809 231.023 230.353 228.668 231.635 229.95 C 234.021 232.337 237.642 233.489 240.028 235.875 C 241.55 237.397 244.183 237.809 245.706 239.331 C 245.891 239.516 247.187 239.549 247.187 239.825"/>
      <path style="stroke: rgb(209, 209, 209); fill: none;" d="M 194.853 234.147 C 198.669 236.055 199.194 239.825 205.221 239.825"/>
      <ellipse style="fill: url('#gradient-0'); stroke: rgb(0, 0, 0); stroke-width: 0.1px;" cx="246.57" cy="240.195" rx="3.086" ry="3.333"/>
      <ellipse style="fill: url('#gradient-1'); stroke: rgb(0, 0, 0); stroke-width: 0.1px;" cx="199.791" cy="229.703" rx="3.086" ry="3.333"/>
      <ellipse style="fill: url('#gradient-2'); stroke: rgb(0, 0, 0); stroke-width: 0.1px;" cx="240.65" cy="218.829" rx="3.086" ry="3.333"/>
      <ellipse style="fill: url('#gradient-3'); stroke: rgb(0, 0, 0); stroke-width: 0.1px;" cx="205.962" cy="201.562" rx="3.086" ry="3.333"/>
      <ellipse style="fill: url('#gradient-4'); stroke: rgb(0, 0, 0); stroke-width: 0.1px;" cx="230.154" cy="178.605" rx="3.086" ry="3.333"/>
      <ellipse style="fill: url('#gradient-5'); stroke: rgb(0, 0, 0); stroke-width: 0.1px;" cx="219.539" cy="215.387" rx="3.086" ry="3.333"/>
      <ellipse style="fill: url('#gradient-6'); stroke: rgb(0, 0, 0); stroke-width: 0.1px;" cx="206.067" cy="240.462" rx="3.086" ry="3.333"/>
      <ellipse style="fill: url('#gradient-7'); stroke: rgb(0, 0, 0); stroke-width: 0.1px;" cx="237.065" cy="202.796" rx="3.086" ry="3.333"/>
      <ellipse style="fill: url('#gradient-8'); stroke: rgb(0, 0, 0); stroke-width: 0.1px;" cx="216.33" cy="190.454" rx="3.086" ry="3.333"/>
    </g>
    <path d="M 221.154 146.688 L 223.658 153.892 L 231.283 154.047 L 225.206 158.654 L 227.414 165.954 L 221.154 161.598 L 214.894 165.954 L 217.102 158.654 L 211.025 154.047 L 218.65 153.892 Z" style="stroke: rgb(0, 0, 0); fill: rgb(255, 241, 0); stroke-width: 0.3px;" bx:shape="star 221.154 157.338 10.65 10.65 0.4 5 1@1c040528"/>
  </g>
  <g transform="matrix(0.7148779630661011, 0, 0, 0.7191610336303711, -107.44784545898438, -94.24443817138673)" style="">
    <title>Text</title>
    <text style="fill: rgb(51, 51, 51); font-family: Arial, sans-serif; font-size: 22px; font-weight: 700; text-anchor: middle; white-space: pre;" x="219.039" y="280.789"><title>YEAR</title>YEAR_TEXT</text>
    <text style="fill: rgb(51, 51, 51); font-family: Arial, sans-serif; font-size: 12px; font-style: italic; text-anchor: middle; white-space: pre;" x="219.955" y="295.841"><title>SNOW_DEPTH</title>SNOW_DEPTH_TEXT</text>
  </g>
  <path d="M 38.075 54.937 C 38.761 54.781 39.266 54.768 39.847 54.937 C 40.479 55.12 41.301 55.44 41.708 56.088 C 42.202 56.878 42.33 58.477 42.239 59.632 C 42.149 60.78 41.163 61.991 41.176 62.999 C 41.188 63.884 41.486 64.806 42.062 65.391 C 42.682 66.02 44.331 65.821 44.897 66.543 C 45.488 67.296 45.711 68.79 45.429 69.909 C 45.107 71.182 43.998 72.693 42.682 73.719 C 41.172 74.897 37.84 75.428 36.569 76.288 C 35.743 76.848 35.779 77.345 35.063 77.972 C 34.063 78.847 32.133 80.455 30.81 80.984 C 29.745 81.41 28.644 81.516 27.798 81.338 C 27.056 81.182 26.342 80.813 25.938 80.186 C 25.465 79.454 25.097 78.122 25.406 76.997 C 25.794 75.587 27.726 73.742 28.861 72.479 C 29.848 71.38 31.319 71.032 31.785 69.732 C 32.347 68.165 31.007 65.304 31.253 63.353 C 31.481 61.549 32.315 59.609 33.025 58.392 C 33.574 57.452 34.1 56.915 34.886 56.354 C 35.749 55.738 37.176 55.141 38.075 54.937 Z M 47.986 25.688 C 48.724 25.567 49.86 25.548 50.509 25.892 C 50.764 25.727 51.046 25.635 51.403 25.561 C 52.014 25.436 53.007 25.363 53.707 25.561 C 54.392 25.755 55.012 26.1 55.567 26.713 C 56.26 27.478 57.011 29.023 57.339 30.08 C 57.62 30.985 57.291 32.083 57.605 32.649 C 57.851 33.093 58.462 32.976 58.757 33.446 C 59.17 34.107 59.641 35.789 59.465 36.636 C 59.317 37.351 58.755 37.975 58.137 38.319 C 57.46 38.696 56.43 38.899 55.479 38.674 C 54.308 38.396 52.456 37.461 51.669 36.282 C 50.845 35.047 51.284 32.487 50.783 31.32 C 50.75 31.242 50.712 31.169 50.672 31.1 C 50.457 31.562 50.227 31.991 50.023 32.332 C 49.558 33.111 48.859 33.195 48.429 34.104 C 47.8 35.433 47.835 38.381 47.188 40.129 C 46.608 41.696 45.351 42.913 44.885 44.204 C 44.483 45.318 44.746 46.474 44.353 47.394 C 43.983 48.259 43.457 49.069 42.67 49.609 C 41.796 50.208 40.079 50.018 39.215 50.672 C 38.397 51.29 38.384 52.712 37.531 53.33 C 36.589 54.012 34.541 54.521 33.633 54.393 C 32.999 54.303 32.59 53.915 32.304 53.418 C 31.966 52.831 31.73 51.92 31.95 50.938 C 32.259 49.56 34.192 46.724 34.874 45.888 C 35.211 45.473 35.476 45.691 35.671 45.267 C 36.022 44.501 35.582 42.02 36.025 40.838 C 36.406 39.823 37.094 39.021 37.886 38.446 C 38.685 37.864 40.352 38.077 40.809 37.382 C 41.267 36.688 40.339 35.327 40.632 34.282 C 40.968 33.086 42.433 31.321 43.024 30.649 C 43.354 30.275 43.507 30.395 43.822 30.029 C 44.359 29.403 45.081 27.48 45.859 26.751 C 46.501 26.15 47.203 25.816 47.986 25.688 Z M 57.959 38.851 C 58.766 38.785 60.526 38.959 61.415 39.56 C 62.289 40.151 62.942 41.967 63.275 42.395 C 63.413 42.572 63.394 42.436 63.541 42.66 C 64.027 43.406 66.485 47.816 66.907 49.394 C 67.162 50.345 67.128 50.886 66.907 51.52 C 66.686 52.156 66.183 52.86 65.579 53.203 C 65.502 53.247 65.418 53.288 65.329 53.327 C 65.453 53.395 65.567 53.472 65.667 53.558 C 66.575 54.339 66.564 56.744 67.35 57.633 C 67.996 58.363 69.291 58.482 69.743 58.873 C 70.026 59.118 70.021 59.417 70.186 59.582 C 70.322 59.719 70.484 59.621 70.629 59.848 C 70.938 60.334 71.646 62.329 71.514 63.215 C 71.409 63.93 70.938 64.527 70.363 64.898 C 69.718 65.314 68.782 65.727 67.705 65.43 C 66.056 64.975 62.57 62.08 61.415 60.734 C 60.679 59.877 60.54 59.322 60.351 58.43 C 60.135 57.411 60.128 55.774 60.351 54.887 C 60.52 54.218 60.867 53.723 61.237 53.381 C 61.449 53.185 61.649 53.036 61.909 52.945 C 61.55 52.664 61.207 52.305 60.883 51.874 C 59.988 50.686 59.455 48.117 58.579 46.559 C 57.783 45.141 56.29 43.887 55.922 42.838 C 55.66 42.091 55.764 41.474 55.922 40.889 C 56.072 40.328 56.437 39.724 56.808 39.382 C 57.133 39.081 57.423 38.895 57.959 38.851 Z M 38.228 85.566 C 39.109 85.333 40.308 85.377 41.24 85.566 C 42.133 85.747 42.723 86.5 43.721 86.629 C 44.941 86.788 45.9 86.212 48.151 86.098 C 48.881 86.061 49.91 86.023 51.121 85.989 C 51.299 85.696 51.555 85.449 51.872 85.212 C 52.491 84.748 53.426 84.348 54.53 84.149 C 55.944 83.894 58.336 83.867 59.845 84.149 C 61.128 84.388 62.502 84.749 63.123 85.478 C 63.219 85.59 63.302 85.722 63.372 85.867 C 65.633 85.895 67.436 85.965 68.173 86.098 C 68.922 86.233 68.906 86.266 69.148 86.629 C 69.498 87.155 69.822 88.664 69.679 89.376 C 69.564 89.952 69.675 90.347 68.705 90.705 C 66.468 91.53 54.367 91.847 46.921 91.779 C 46.791 91.906 46.617 92.02 46.379 92.122 C 44.884 92.761 38.465 92.877 36.81 92.477 C 36.414 92.381 36.157 92.263 35.965 92.112 C 35.535 92.087 35.098 92.031 34.684 91.945 C 33.401 91.679 31.365 91.06 30.697 90.262 C 30.176 89.639 30.198 88.588 30.343 87.958 C 30.469 87.41 30.754 86.923 31.317 86.629 C 32.099 86.223 34.215 86.149 35.038 86.275 C 35.559 86.355 35.672 86.837 36.102 86.807 C 36.676 86.765 37.415 85.781 38.228 85.566 Z" style="fill: rgb(237, 237, 237); stroke: rgb(147, 147, 147); stroke-width: 0.3px;" transform="matrix(1, 0, 0, 1, 7.105427357601002e-15, 0)">
    <title>LITE</title>
  </path>
</svg>