<?xml version="1.0" encoding="utf-8"?>
<svg viewBox="0.399 2.635 100.195 124.401" width="100.195" height="124.401" xmlns="http://www.w3.org/2000/svg" xmlns:bx="https://boxy-svg.com">
  <defs>
    <linearGradient gradientUnits="userSpaceOnUse" x1="204.604" y1="218.348" x2="204.604" y2="225.014" id="gradient-0" gradientTransform="matrix(1, 0, 0, 1, 41.965297, 18.514101)">
      <stop offset="0" style="stop-color: rgb(69.02% 10.196% 10.196%)"/>
      <stop offset="1" style="stop-color: rgb(47.617% 0% 0%)"/>
    </linearGradient>
    <linearGradient gradientUnits="userSpaceOnUse" x1="204.604" y1="218.348" x2="204.604" y2="225.014" id="gradient-1" gradientTransform="matrix(1, 0, 0, 1, -4.81343, 8.022452)">
      <stop offset="0" style="stop-color: rgb(69.02% 10.196% 10.196%)"/>
      <stop offset="1" style="stop-color: rgb(47.617% 0% 0%)"/>
    </linearGradient>
    <linearGradient gradientUnits="userSpaceOnUse" x1="204.604" y1="218.348" x2="204.604" y2="225.014" id="gradient-2" gradientTransform="matrix(1, 0, 0, 1, 36.046196, -2.852014)">
      <stop offset="0" style="stop-color: rgb(69.02% 10.196% 10.196%)"/>
      <stop offset="1" style="stop-color: rgb(47.617% 0% 0%)"/>
    </linearGradient>
    <linearGradient gradientUnits="userSpaceOnUse" x1="204.604" y1="218.348" x2="204.604" y2="225.014" id="gradient-3" gradientTransform="matrix(1, 0, 0, 1, 1.357937, -20.118983)">
      <stop offset="0" style="stop-color: rgb(69.02% 10.196% 10.196%)"/>
      <stop offset="1" style="stop-color: rgb(47.617% 0% 0%)"/>
    </linearGradient>
    <linearGradient gradientUnits="userSpaceOnUse" x1="204.604" y1="218.348" x2="204.604" y2="225.014" id="gradient-4" gradientTransform="matrix(1, 0, 0, 1, 25.549698, -43.076468)">
      <stop offset="0" style="stop-color: rgb(69.02% 10.196% 10.196%)"/>
      <stop offset="1" style="stop-color: rgb(47.617% 0% 0%)"/>
    </linearGradient>
    <linearGradient gradientUnits="userSpaceOnUse" x1="204.604" y1="218.348" x2="204.604" y2="225.014" id="gradient-5" gradientTransform="matrix(1, 0, 0, 1, 14.934944, -6.295119)">
      <stop offset="0" style="stop-color: rgb(69.02% 10.196% 10.196%)"/>
      <stop offset="1" style="stop-color: rgb(47.617% 0% 0%)"/>
    </linearGradient>
    <linearGradient gradientUnits="userSpaceOnUse" x1="253.358" y1="209.091" x2="253.358" y2="215.757" id="gradient-6" gradientTransform="matrix(1, 0, 0, 1, -47.29071, 28.037297)">
      <stop offset="0" style="stop-color: rgb(0% 21.569% 88.627%)"/>
      <stop offset="1" style="stop-color: rgb(0% 11.861% 64.277%)"/>
    </linearGradient>
    <linearGradient gradientUnits="userSpaceOnUse" x1="253.358" y1="209.091" x2="253.358" y2="215.757" id="gradient-7" gradientTransform="matrix(1, 0, 0, 1, -16.292206, -9.627989)">
      <stop offset="0" style="stop-color: rgb(0% 21.569% 88.627%)"/>
      <stop offset="1" style="stop-color: rgb(0% 11.861% 64.277%)"/>
    </linearGradient>
    <linearGradient gradientUnits="userSpaceOnUse" x1="253.358" y1="209.091" x2="253.358" y2="215.757" id="gradient-8" gradientTransform="matrix(1, 0, 0, 1, -37.02737, -21.970437)">
      <stop offset="0" style="stop-color: rgb(0% 21.569% 88.627%)"/>
      <stop offset="1" style="stop-color: rgb(0% 11.861% 64.277%)"/>
    </linearGradient>
  </defs>
  <g transform="matrix(0.7148779630661011, 0, 0, 0.7191610336303711, -108.24022674560547, -93.4969940185547)" style="">
    <title>Tree</title>
    <g style="" transform="matrix(1.030324, 0, 0, 1, -7.692257, 0)">
      <rect x="215.095" y="238.59" width="13.824" height="13.824" style="stroke: rgb(0, 0, 0); fill: rgb(133, 76, 10);"/>
      <path d="M 222.468 187.856 L 253.666 239.77 L 191.27 239.77 L 222.468 187.856 Z" style="stroke: rgb(0, 0, 0); fill: rgb(20, 128, 46);" bx:shape="triangle 191.27 187.856 62.396 51.914 0.5 0 1@fc359b9c"/>
      <path d="M 221.983 172.106 L 245.624 218.658 L 198.342 218.658 L 221.983 172.106 Z" style="stroke: rgb(0, 0, 0); fill: rgb(20, 128, 46);" bx:shape="triangle 198.342 172.106 47.282 46.552 0.5 0 1@c3972894"/>
      <path d="M 222.08 160.42 L 241.264 201.602 L 202.896 201.602 L 222.08 160.42 Z" style="stroke: rgb(0, 0, 0); fill: rgb(20, 128, 46);" bx:shape="triangle 202.896 160.42 38.368 41.182 0.5 0 1@8c72c351"/>
      <path style="fill: none; stroke-linecap: round; stroke: rgba(216, 213, 213, 0.87);" d="M 217.07 173.421 C 216.533 174.496 218.839 177.658 219.539 178.358 C 220.65 179.469 221.144 181.197 222.254 182.307 C 224.075 184.128 227.933 184.53 229.907 186.504 C 231.176 187.774 233.512 189.466 235.585 189.466"/>
      <path style="stroke: rgb(209, 209, 209); fill: none; stroke-linecap: round;" d="M 207.781 190.766 C 209.379 193.225 210.015 195.637 211.808 197.476 C 214.442 200.177 219.375 200.589 221.876 203.155 C 222.632 203.928 224.645 203.413 225.4 204.187 C 226.393 205.205 228.217 206.663 229.427 207.283 C 230.569 207.869 230.947 210.133 231.693 210.897 C 233.597 212.85 238.647 217.608 241.509 217.608"/>
      <path style="stroke: rgb(209, 209, 209); fill: none;" d="M 203.987 219.089 C 205.859 222.833 210.614 223.494 213.368 226.247 C 214.273 227.153 216.412 226.823 217.317 227.729 C 218.648 229.059 222.225 228.439 223.489 229.703 C 224.809 231.023 230.353 228.668 231.635 229.95 C 234.021 232.337 237.642 233.489 240.028 235.875 C 241.55 237.397 244.183 237.809 245.706 239.331 C 245.891 239.516 247.187 239.549 247.187 239.825"/>
      <path style="stroke: rgb(209, 209, 209); fill: none;" d="M 194.853 234.147 C 198.669 236.055 199.194 239.825 205.221 239.825"/>
      <ellipse style="fill: url('#gradient-0'); stroke: rgb(0, 0, 0); stroke-width: 0.1px;" cx="246.57" cy="240.195" rx="3.086" ry="3.333"/>
      <ellipse style="fill: url('#gradient-1'); stroke: rgb(0, 0, 0); stroke-width: 0.1px;" cx="199.791" cy="229.703" rx="3.086" ry="3.333"/>
      <ellipse style="fill: url('#gradient-2'); stroke: rgb(0, 0, 0); stroke-width: 0.1px;" cx="240.65" cy="218.829" rx="3.086" ry="3.333"/>
      <ellipse style="fill: url('#gradient-3'); stroke: rgb(0, 0, 0); stroke-width: 0.1px;" cx="205.962" cy="201.562" rx="3.086" ry="3.333"/>
      <ellipse style="fill: url('#gradient-4'); stroke: rgb(0, 0, 0); stroke-width: 0.1px;" cx="230.154" cy="178.605" rx="3.086" ry="3.333"/>
      <ellipse style="fill: url('#gradient-5'); stroke: rgb(0, 0, 0); stroke-width: 0.1px;" cx="219.539" cy="215.387" rx="3.086" ry="3.333"/>
      <ellipse style="fill: url('#gradient-6'); stroke: rgb(0, 0, 0); stroke-width: 0.1px;" cx="206.067" cy="240.462" rx="3.086" ry="3.333"/>
      <ellipse style="fill: url('#gradient-7'); stroke: rgb(0, 0, 0); stroke-width: 0.1px;" cx="237.065" cy="202.796" rx="3.086" ry="3.333"/>
      <ellipse style="fill: url('#gradient-8'); stroke: rgb(0, 0, 0); stroke-width: 0.1px;" cx="216.33" cy="190.454" rx="3.086" ry="3.333"/>
    </g>
    <path d="M 221.154 146.688 L 223.658 153.892 L 231.283 154.047 L 225.206 158.654 L 227.414 165.954 L 221.154 161.598 L 214.894 165.954 L 217.102 158.654 L 211.025 154.047 L 218.65 153.892 Z" style="stroke: rgb(0, 0, 0); fill: rgb(255, 241, 0); stroke-width: 0.3px;" bx:shape="star 221.154 157.338 10.65 10.65 0.4 5 1@1c040528"/>
  </g>
  <g transform="matrix(0.7148779630661011, 0, 0, 0.7191610336303711, -107.44784545898438, -94.24443817138673)" style="">
    <title>Text</title>
    <text style="fill: rgb(51, 51, 51); font-family: Arial, sans-serif; font-size: 22px; font-weight: 700; text-anchor: middle; white-space: pre;" x="219.039" y="280.789"><title>YEAR</title>YEAR_TEXT</text>
    <text style="fill: rgb(51, 51, 51); font-family: Arial, sans-serif; font-size: 12px; font-style: italic; text-anchor: middle; white-space: pre;" x="219.955" y="295.841"><title>SNOW_DEPTH</title>SNOW_DEPTH_TEXT</text>
  </g>
  <path d="M 49.737 51.463 C 51.848 51.623 53.413 51.585 55.486 52.367 C 56.795 52.86 58.685 53.937 60.358 54.993 C 60.505 54.969 60.648 54.955 60.789 54.951 C 61.954 54.92 63.465 55.776 64.203 56.391 C 64.771 56.865 64.665 57.436 65.194 58.054 C 65.939 58.924 67.961 59.761 68.609 61.046 C 68.888 61.599 69.073 62.27 69.167 62.976 C 70.047 64.274 71.972 67.726 72.464 68.452 C 72.672 68.758 72.628 68.581 72.824 68.904 C 73.37 69.81 75.69 74.777 76.237 75.683 C 76.432 76.005 76.39 75.785 76.597 76.134 C 77.252 77.24 79.335 83.654 81.178 85.442 C 81.198 85.462 81.218 85.48 81.238 85.499 C 82.176 85.593 82.881 85.741 83.244 85.985 C 83.545 86.186 83.595 86.466 83.561 86.75 C 84.208 86.917 84.939 87.034 85.849 87.249 C 88.393 87.853 94.556 87.915 97.622 88.41 C 98.821 88.452 99.697 88.561 100.132 88.876 C 100.587 89.206 100.426 89.797 100.312 90.231 C 100.188 90.704 100.041 91.28 99.323 91.587 C 98.766 91.825 97.924 91.895 96.858 91.896 C 95.839 91.959 94.559 91.89 93.234 91.795 C 92.544 91.777 91.816 91.764 91.059 91.768 C 84.942 91.804 75.541 91.584 64.469 91.587 C 52.383 91.59 25.757 92.955 13.239 92.586 C 12.136 92.646 10.814 92.599 9.778 92.505 C 7.981 92.341 5.115 91.932 4.38 91.286 C 3.964 90.92 4.063 90.347 4.16 89.956 C 4.255 89.575 4.558 89.273 4.932 88.959 C 5.259 88.683 5.78 88.273 6.279 88.036 C 6.443 87.809 6.674 87.601 6.977 87.431 C 7.946 86.882 10.116 87.328 12.007 86.526 C 13.013 86.1 14.191 85.579 15.407 84.908 C 15.538 84.777 15.714 84.651 15.96 84.539 C 16.038 84.502 16.127 84.469 16.227 84.435 C 17.804 83.483 19.395 82.261 20.721 80.652 C 24.062 76.598 26.698 66.829 29.165 62.578 C 29.4 62.173 29.648 61.774 29.9 61.385 C 29.93 61.298 29.962 61.21 29.996 61.119 C 29.957 61.066 29.919 61.01 29.884 60.952 C 29.492 60.294 29.267 59.097 29.345 58.059 C 29.434 56.888 29.85 55.733 30.603 54.265 C 31.261 52.982 32.732 50.776 33.943 49.124 C 34.643 46.704 36.283 42.652 37.609 39.985 C 39.112 36.967 41.127 34 42.82 31.672 C 43.369 30.917 44.024 30.094 44.659 29.333 C 44.404 28.938 44.226 28.41 44.257 28.057 C 44.301 27.56 44.731 27.134 45.245 26.702 C 45.933 26.124 47.354 25.247 48.3 25.075 C 49.1 24.931 50.169 25.076 50.545 25.437 C 50.852 25.73 50.85 26.344 50.725 26.792 C 50.619 27.171 50.336 27.574 49.973 27.944 C 50.122 28.58 50.141 29.406 50.006 30.406 C 49.592 33.486 46.681 41.06 44.796 44.866 C 44.198 46.074 43.539 47.229 42.875 48.27 C 43.17 48.62 43.27 49.129 43 49.926 C 42.882 50.274 42.618 50.791 42.26 51.403 C 44.401 51.143 47.504 51.294 49.737 51.463 Z M 49.198 10.978 C 49.585 10.942 50.886 10.917 51.264 11.339 C 51.653 11.774 51.65 12.7 51.444 13.598 C 51.155 14.852 50.075 17.478 49.018 18.207 C 48.162 18.797 46.603 18.741 45.964 18.388 C 45.437 18.097 45.11 17.193 45.156 16.671 C 45.199 16.174 45.751 15.563 46.144 15.315 C 46.485 15.1 46.954 15.471 47.312 15.135 C 47.908 14.575 48.475 11.641 48.839 11.159 C 48.98 10.97 48.998 10.996 49.198 10.978 Z" style="fill: rgb(237, 237, 237); stroke-width: 0.3px; stroke: rgb(147, 147, 147);" transform="matrix(1, 0, 0, 1, 7.105427357601002e-15, 0)">
    <title>SEVERE</title>
  </path>
</svg>