<?xml version="1.0" encoding="utf-8"?>
<svg viewBox="0.399 2.635 100.195 124.401" width="100.195" height="124.401" xmlns="http://www.w3.org/2000/svg" xmlns:bx="https://boxy-svg.com">
  <defs>
    <linearGradient gradientUnits="userSpaceOnUse" x1="204.604" y1="218.348" x2="204.604" y2="225.014" id="gradient-0" gradientTransform="matrix(1, 0, 0, 1, 41.965297, 18.514101)">
      <stop offset="0" style="stop-color: rgb(69.02% 10.196% 10.196%)"/>
      <stop offset="1" style="stop-color: rgb(47.617% 0% 0%)"/>
    </linearGradient>
    <linearGradient gradientUnits="userSpaceOnUse" x1="204.604" y1="218.348" x2="204.604" y2="225.014" id="gradient-1" gradientTransform="matrix(1, 0, 0, 1, -4.81343, 8.022452)">
      <stop offset="0" style="stop-color: rgb(69.02% 10.196% 10.196%)"/>
      <stop offset="1" style="stop-color: rgb(47.617% 0% 0%)"/>
    </linearGradient>
    <linearGradient gradientUnits="userSpaceOnUse" x1="204.604" y1="218.348" x2="204.604" y2="225.014" id="gradient-2" gradientTransform="matrix(1, 0, 0, 1, 36.046196, -2.852014)">
      <stop offset="0" style="stop-color: rgb(69.02% 10.196% 10.196%)"/>
      <stop offset="1" style="stop-color: rgb(47.617% 0% 0%)"/>
    </linearGradient>
    <linearGradient gradientUnits="userSpaceOnUse" x1="204.604" y1="218.348" x2="204.604" y2="225.014" id="gradient-3" gradientTransform="matrix(1, 0, 0, 1, 1.357937, -20.118983)">
      <stop offset="0" style="stop-color: rgb(69.02% 10.196% 10.196%)"/>
      <stop offset="1" style="stop-color: rgb(47.617% 0% 0%)"/>
    </linearGradient>
    <linearGradient gradientUnits="userSpaceOnUse" x1="204.604" y1="218.348" x2="204.604" y2="225.014" id="gradient-4" gradientTransform="matrix(1, 0, 0, 1, 25.549698, -43.076468)">
      <stop offset="0" style="stop-color: rgb(69.02% 10.196% 10.196%)"/>
      <stop offset="1" style="stop-color: rgb(47.617% 0% 0%)"/>
    </linearGradient>
    <linearGradient gradientUnits="userSpaceOnUse" x1="204.604" y1="218.348" x2="204.604" y2="225.014" id="gradient-5" gradientTransform="matrix(1, 0, 0, 1, 14.934944, -6.295119)">
      <stop offset="0" style="stop-color: rgb(69.02% 10.196% 10.196%)"/>
      <stop offset="1" style="stop-color: rgb(47.617% 0% 0%)"/>
    </linearGradient>
    <linearGradient gradientUnits="userSpaceOnUse" x1="253.358" y1="209.091" x2="253.358" y2="215.757" id="gradient-6" gradientTransform="matrix(1, 0, 0, 1, -47.29071, 28.037297)">
      <stop offset="0" style="stop-color: rgb(0% 21.569% 88.627%)"/>
      <stop offset="1" style="stop-color: rgb(0% 11.861% 64.277%)"/>
    </linearGradient>
    <linearGradient gradientUnits="userSpaceOnUse" x1="253.358" y1="209.091" x2="253.358" y2="215.757" id="gradient-7" gradientTransform="matrix(1, 0, 0, 1, -16.292206, -9.627989)">
      <stop offset="0" style="stop-color: rgb(0% 21.569% 88.627%)"/>
      <stop offset="1" style="stop-color: rgb(0% 11.861% 64.277%)"/>
    </linearGradient>
    <linearGradient gradientUnits="userSpaceOnUse" x1="253.358" y1="209.091" x2="253.358" y2="215.757" id="gradient-8" gradientTransform="matrix(1, 0, 0, 1, -37.02737, -21.970437)">
      <stop offset="0" style="stop-color: rgb(0% 21.569% 88.627%)"/>
      <stop offset="1" style="stop-color: rgb(0% 11.861% 64.277%)"/>
    </linearGradient>
  </defs>
  <g transform="matrix(0.7148779630661011, 0, 0, 0.7191610336303711, -108.24022674560547, -93.4969940185547)" style="">
    <title>Tree</title>
    <g style="" transform="matrix(1.030324, 0, 0, 1, -7.692257, 0)">
      <rect x="215.095" y="238.59" width="13.824" height="13.824" style="stroke: rgb(0, 0, 0); fill: rgb(133, 76, 10);"/>
      <path d="M 222.468 187.856 L 253.666 239.77 L 191.27 239.77 L 222.468 187.856 Z" style="stroke: rgb(0, 0, 0); fill: rgb(20, 128, 46);" bx:shape="triangle 191.27 187.856 62.396 51.914 0.5 0 1@fc359b9c"/>
      <path d="M 221.983 172.106 L 245.624 218.658 L 198.342 218.658 L 221.983 172.106 Z" style="stroke: rgb(0, 0, 0); fill: rgb(20, 128, 46);" bx:shape="triangle 198.342 172.106 47.282 46.552 0.5 0 1@c3972894"/>
      <path d="M 222.08 160.42 L 241.264 201.602 L 202.896 201.602 L 222.08 160.42 Z" style="stroke: rgb(0, 0, 0); fill: rgb(20, 128, 46);" bx:shape="triangle 202.896 160.42 38.368 41.182 0.5 0 1@8c72c351"/>
      <path style="fill: none; stroke-linecap: round; stroke: rgba(216, 213, 213, 0.87);" d="M 217.07 173.421 C 216.533 174.496 218.839 177.658 219.539 178.358 C 220.65 179.469 221.144 181.197 222.254 182.307 C 224.075 184.128 227.933 184.53 229.907 186.504 C 231.176 187.774 233.512 189.466 235.585 189.466"/>
      <path style="stroke: rgb(209, 209, 209); fill: none; stroke-linecap: round;" d="M 207.781 190.766 C 209.379 193.225 210.015 195.637 211.808 197.476 C 214.442 200.177 219.375 200.589 221.876 203.155 C 222.632 203.928 224.645 203.413 225.4 204.187 C 226.393 205.205 228.217 206.663 229.427 207.283 C 230.569 207.869 230.947 210.133 231.693 210.897 C 233.597 212.85 238.647 217.608 241.509 217.608"/>
      <path style="stroke: rgb(209, 209, 209); fill: none;" d="M 203.987 219.089 C 205.859 222.833 210.614 223.494 213.368 226.247 C 214.273 227.153 216.412 226.823 217.317 227.729 C 218.648 229.059 222.225 228.439 223.489 229.703 C 224.809 231.023 230.353 228.668 231.635 229.95 C 234.021 232.337 237.642 233.489 240.028 235.875 C 241.55 237.397 244.183 237.809 245.706 239.331 C 245.891 239.516 247.187 239.549 247.187 239.825"/>
      <path style="stroke: rgb(209, 209, 209); fill: none;" d="M 194.853 234.147 C 198.669 236.055 199.194 239.825 205.221 239.825"/>
      <ellipse style="fill: url('#gradient-0'); stroke: rgb(0, 0, 0); stroke-width: 0.1px;" cx="246.57" cy="240.195" rx="3.086" ry="3.333"/>
      <ellipse style="fill: url('#gradient-1'); stroke: rgb(0, 0, 0); stroke-width: 0.1px;" cx="199.791" cy="229.703" rx="3.086" ry="3.333"/>
      <ellipse style="fill: url('#gradient-2'); stroke: rgb(0, 0, 0); stroke-width: 0.1px;" cx="240.65" cy="218.829" rx="3.086" ry="3.333"/>
      <ellipse style="fill: url('#gradient-3'); stroke: rgb(0, 0, 0); stroke-width: 0.1px;" cx="205.962" cy="201.562" rx="3.086" ry="3.333"/>
      <ellipse style="fill: url('#gradient-4'); stroke: rgb(0, 0, 0); stroke-width: 0.1px;" cx="230.154" cy="178.605" rx="3.086" ry="3.333"/>
      <ellipse style="fill: url('#gradient-5'); stroke: rgb(0, 0, 0); stroke-width: 0.1px;" cx="219.539" cy="215.387" rx="3.086" ry="3.333"/>
      <ellipse style="fill: url('#gradient-6'); stroke: rgb(0, 0, 0); stroke-width: 0.1px;" cx="206.067" cy="240.462" rx="3.086" ry="3.333"/>
      <ellipse style="fill: url('#gradient-7'); stroke: rgb(0, 0, 0); stroke-width: 0.1px;" cx="237.065" cy="202.796" rx="3.086" ry="3.333"/>
      <ellipse style="fill: url('#gradient-8'); stroke: rgb(0, 0, 0); stroke-width: 0.1px;" cx="216.33" cy="190.454" rx="3.086" ry="3.333"/>
    </g>
    <path d="M 221.154 146.688 L 223.658 153.892 L 231.283 154.047 L 225.206 158.654 L 227.414 165.954 L 221.154 161.598 L 214.894 165.954 L 217.102 158.654 L 211.025 154.047 L 218.65 153.892 Z" style="stroke: rgb(0, 0, 0); fill: rgb(255, 241, 0); stroke-width: 0.3px;" bx:shape="star 221.154 157.338 10.65 10.65 0.4 5 1@1c040528"/>
  </g>
  <g transform="matrix(0.7148779630661011, 0, 0, 0.7191610336303711, -107.44784545898438, -94.24443817138673)" style="">
    <title>Text</title>
    <text style="fill: rgb(51, 51, 51); font-family: Arial, sans-serif; font-size: 22px; font-weight: 700; text-anchor: middle; white-space: pre;" x="219.039" y="280.789"><title>YEAR</title>YEAR_TEXT</text>
    <text style="fill: rgb(51, 51, 51); font-family: Arial, sans-serif; font-size: 12px; font-style: italic; text-anchor: middle; white-space: pre;" x="219.955" y="295.841"><title>SNOW_DEPTH</title>SNOW_DEPTH_TEXT</text>
  </g>
  <path style="fill: rgb(235, 235, 235); stroke: rgb(147, 147, 147); stroke-width: 0.3px;" d="M 48.822 70.256 C 50.16 70.048 51.03 69.985 52.223 70.256 C 53.586 70.567 56.007 71.806 56.545 72.251 C 56.759 72.428 56.543 72.47 56.757 72.679 C 57.348 73.251 60.742 74.837 61.789 75.887 C 62.074 76.174 62.288 76.515 62.458 76.846 C 62.471 76.86 62.485 76.873 62.497 76.885 C 62.681 77.064 62.638 77.065 62.781 77.312 C 62.905 77.528 63.145 77.908 63.403 78.348 C 63.551 78.444 63.747 78.523 63.915 78.738 C 64.199 79.104 64.489 80.198 64.765 80.52 C 64.933 80.717 65.03 80.649 65.261 80.805 C 65.658 81.074 66.741 81.853 67.032 82.159 C 67.181 82.317 67.104 82.379 67.245 82.516 C 67.487 82.75 68.185 82.945 68.591 83.371 C 69.076 83.882 69.498 85.199 69.867 85.51 C 70.073 85.684 70.282 85.541 70.434 85.653 C 70.593 85.77 70.563 85.992 70.788 86.223 C 71.096 86.54 71.652 87.028 72.345 87.465 C 72.446 87.477 72.541 87.49 72.63 87.506 C 73.467 87.654 73.66 88.072 74.331 88.218 C 75.128 88.394 76.203 88.093 77.165 88.362 C 78.232 88.659 79.167 89.691 80.425 90.072 C 81.838 90.501 84.585 90.055 85.314 90.642 C 85.785 91.023 85.701 91.817 85.598 92.282 C 85.503 92.706 85.247 93.101 84.818 93.352 C 84.257 93.678 83.274 93.768 82.267 93.78 C 81.85 93.784 81.345 93.769 80.812 93.73 C 80.586 93.873 80.327 93.974 79.858 94.064 C 78.548 94.314 74.28 94.522 73.055 94.207 C 72.737 94.125 72.512 94.021 72.345 93.891 C 71.772 93.886 71.159 93.871 70.519 93.855 C 69.93 93.908 69.319 93.901 68.795 93.806 C 68.47 93.796 68.142 93.788 67.812 93.78 C 63.747 93.677 58.111 93.191 52.648 93.066 C 46.585 92.927 36.591 92.618 32.949 93.066 C 31.144 93.288 31.122 93.813 29.689 94.064 C 27.65 94.421 22.791 94.903 21.47 94.634 C 20.876 94.514 20.728 94.3 20.549 93.993 C 20.46 93.841 20.4 93.635 20.373 93.419 C 19.645 93.382 19.02 93.303 18.636 93.209 C 18.095 93.076 17.894 92.874 17.714 92.568 C 17.525 92.243 17.468 91.674 17.573 91.284 C 17.678 90.89 17.813 90.482 18.352 90.215 C 18.852 89.969 19.877 89.985 20.981 89.973 C 21.091 89.581 21.262 89.33 21.753 88.932 C 22.661 88.195 24.894 87.567 26.855 86.223 C 27.274 85.935 27.733 85.582 28.217 85.185 C 28.372 84.711 28.531 84.244 28.768 83.87 C 29.312 83.016 29.817 82.332 30.682 81.661 C 31.268 81.206 31.995 80.731 32.801 80.321 C 34.248 78.527 35.982 76.521 37.484 75.245 C 39.186 73.801 40.733 72.935 42.586 72.109 C 44.502 71.256 47.087 70.524 48.822 70.256 Z M 43.79 52.22 C 44.35 53.998 44.463 57.717 44.357 60.347 C 44.255 62.892 43.631 66.001 43.223 67.761 C 42.953 68.93 42.815 69.576 42.373 70.327 C 41.937 71.07 41.326 71.767 40.602 72.251 C 39.849 72.754 38.568 73.314 37.909 73.249 C 37.426 73.202 37.037 72.915 36.847 72.466 C 36.585 71.846 37.356 70.126 36.988 69.543 C 36.675 69.045 35.45 69.156 35.146 68.902 C 34.964 68.749 35.073 68.359 34.933 68.402 C 34.634 68.492 33.765 70.986 33.091 71.538 C 32.602 71.939 31.963 72.033 31.531 71.967 C 31.159 71.909 30.79 71.632 30.611 71.325 C 30.421 71.001 30.344 70.855 30.469 70.042 C 30.794 67.921 33.364 59.374 35.129 55.187 C 35.061 55.175 34.995 55.161 34.933 55.143 C 34.466 55.016 34.071 54.707 33.87 54.359 C 33.672 54.015 33.595 53.727 33.728 53.076 C 33.799 52.729 33.971 52.167 34.205 51.51 C 34.076 51.417 33.963 51.281 33.87 51.08 C 33.467 50.206 33.167 47.691 33.587 45.806 C 34.086 43.561 35.972 40.626 37.271 38.534 C 38.421 36.683 39.918 34.628 40.885 33.758 C 41.468 33.234 41.9 33.548 42.373 32.974 C 43.143 32.042 43.735 28.947 44.499 27.699 C 45.06 26.784 45.382 26.337 46.271 25.775 C 47.473 25.013 50.283 24.158 51.514 23.921 C 52.281 23.773 52.74 23.769 53.214 23.921 C 53.644 24.059 53.778 24.099 54.277 24.705 C 55.494 26.18 59.34 32.84 60.513 35.256 C 61.21 36.69 61.475 37.452 61.647 38.392 C 61.791 39.178 61.769 40.035 61.647 40.53 C 61.563 40.869 61.224 40.863 61.222 41.243 C 61.218 41.945 62.445 43.878 62.639 44.807 C 62.775 45.457 62.36 45.509 62.639 46.376 C 63.307 48.449 68.226 55.187 69.441 58.494 C 70.314 60.867 70.626 63.354 70.434 64.481 C 70.329 65.095 70.051 65.276 69.654 65.55 C 69.171 65.885 67.67 65.895 67.599 66.192 C 67.536 66.458 68.639 66.985 68.875 67.19 C 68.995 67.295 68.974 67.271 69.087 67.404 C 69.344 67.705 70.19 68.956 70.504 69.257 C 70.662 69.408 70.695 69.286 70.858 69.472 C 71.264 69.932 72.587 72.512 72.914 72.964 C 73.029 73.125 73.028 73.005 73.126 73.178 C 73.413 73.684 74.456 76.131 74.685 77.312 C 74.865 78.241 74.87 79.126 74.685 79.736 C 74.539 80.216 74.374 80.554 73.906 80.805 C 73.22 81.174 71.653 81.582 70.504 81.233 C 69.132 80.817 67.421 79.246 66.324 77.882 C 65.223 76.515 64.204 74.104 63.915 73.035 C 63.752 72.435 63.877 72.083 63.915 71.752 C 63.942 71.511 64.116 71.536 64.056 71.182 C 63.893 70.23 61.721 66.798 61.222 64.767 C 60.781 62.973 61.471 61.434 60.939 59.635 C 60.313 57.523 57.775 54.809 57.254 52.933 C 56.87 51.552 57.01 50.307 57.254 49.37 C 57.45 48.613 58.047 47.881 58.317 47.588 C 58.458 47.432 58.675 47.535 58.671 47.373 C 58.662 47.038 57.362 45.894 56.912 45.112 C 56.644 45.147 56.384 45.154 56.143 45.124 C 55.115 44.998 54.078 44.222 53.191 43.313 C 52.144 42.241 51.281 40.425 50.454 38.822 C 49.936 37.816 49.379 36.637 48.914 35.522 C 47.861 34.897 46.264 33.816 45.531 32.894 C 43.965 36.493 42.313 41.51 40.904 44.739 C 41.37 44.766 42.086 44.932 42.373 45.377 C 42.795 46.03 42.596 47.723 42.515 48.8 C 42.48 49.26 42.436 49.739 42.361 50.196 C 42.722 50.76 43.473 51.213 43.79 52.22 Z M 49.955 10.948 C 50.395 10.908 51.387 10.898 51.727 11.232 C 52.056 11.556 52.214 12.16 52.01 12.872 C 51.664 14.08 49.667 17.065 48.396 17.933 C 47.442 18.585 46.122 18.636 45.42 18.503 C 45.318 18.483 45.221 18.456 45.128 18.42 C 44.288 18.616 43.348 18.732 42.869 18.646 C 42.335 18.551 41.972 18.244 41.806 17.862 C 41.622 17.439 41.746 16.602 41.948 16.151 C 42.13 15.745 42.571 15.427 42.869 15.225 C 43.111 15.061 43.203 14.983 43.578 14.939 C 44.149 14.874 45.769 14.795 46.63 15.033 C 46.675 15.006 46.721 14.975 46.766 14.939 C 47.55 14.318 48.654 11.769 49.247 11.232 C 49.54 10.967 49.643 10.975 49.955 10.948 Z" transform="matrix(1, 0, 0, 1, 7.105427357601002e-15, 0)">
    <title>HEAVY</title>
  </path>
</svg>